<svg width="40" height="40" viewBox="0 0 40 40" fill="none" xmlns="http://www.w3.org/2000/svg">
<g clip-path="url(#clip0_312_2506)">
<path d="M0 0H40V40H0V0Z" fill="url(#paint0_linear_312_2506)"/>
<path fill-rule="evenodd" clip-rule="evenodd" d="M8.57141 10.7143H31.4286V23.7929L31.4214 23.8071L31.4286 23.8V24.2857H31.05L31.0786 24.2571L30.2143 23.0429C29.8657 23.5498 29.3627 23.9308 28.7802 24.1289C28.1977 24.3271 27.5668 24.3319 26.9813 24.1427C26.3959 23.9535 25.8871 23.5803 25.5308 23.0787C25.1745 22.5771 24.9896 21.9739 25.0036 21.3588C25.0176 20.7437 25.2299 20.1495 25.6087 19.6647C25.9876 19.1799 26.5128 18.8304 27.1063 18.6681C27.6998 18.5058 28.3298 18.5394 28.9027 18.7639C29.4755 18.9885 29.9606 19.3919 30.2857 19.9143L31.2857 18.8571C30.9394 18.3925 30.5025 18.003 30.0013 17.712C29.5002 17.4211 28.9453 17.2348 28.3701 17.1644C27.7949 17.094 27.2114 17.141 26.6549 17.3025C26.0984 17.464 25.5804 17.7367 25.1323 18.1041C24.6842 18.4715 24.3152 18.926 24.0477 19.44C23.7802 19.954 23.6198 20.517 23.576 21.0948C23.5323 21.6726 23.6062 22.2533 23.7932 22.8018C23.9802 23.3502 24.2766 23.855 24.6643 24.2857H23.4714C23.6857 23.5 23.7071 21.8 22 21.3286C22.3574 21.1471 22.6529 20.8635 22.8487 20.5137C23.0446 20.164 23.1321 19.7639 23.1 19.3643C23.0286 17.9143 21.9357 17.1429 20.2357 17.1429H16.4286V24.2857H15.7143L12.8571 17.1429H11.4286L8.57141 24.2857V10.7143ZM17.8571 24.2857H20.7143C20.9984 24.2857 21.271 24.1728 21.4719 23.9719C21.6728 23.771 21.7857 23.4984 21.7857 23.2143C21.7857 22.9301 21.6728 22.6576 21.4719 22.4567C21.271 22.2557 20.9984 22.1429 20.7143 22.1429H17.8571V24.2857ZM12.1428 19.2857L14.2857 24.2857H9.99998L12.1428 19.2857ZM12.1286 12.8571H10.85V15H12.1286C12.5214 14.9786 12.8428 14.8143 12.8428 14.4286C12.8428 14.1286 12.5428 13.9357 12.3928 13.8786C12.4928 13.85 12.7 13.7071 12.7 13.3786C12.7 13.0357 12.3214 12.8571 12.1286 12.8571ZM11.3 13.25H11.9571C12.0244 13.25 12.0889 13.2767 12.1364 13.3243C12.184 13.3718 12.2107 13.4363 12.2107 13.5036C12.2107 13.5708 12.184 13.6353 12.1364 13.6829C12.0889 13.7304 12.0244 13.7571 11.9571 13.7571H11.3V13.2571V13.25ZM12.1143 14.1H11.3V14.6H12.1143C12.1806 14.6 12.2442 14.5737 12.291 14.5268C12.3379 14.4799 12.3643 14.4163 12.3643 14.35C12.3643 14.2837 12.3379 14.2201 12.291 14.1732C12.2442 14.1263 12.1806 14.1 12.1143 14.1ZM15.4643 12.8571L14.4643 15H14.9928L15.2357 14.4786H16.1L16.3857 15H16.9143L15.8786 12.8571H15.4643ZM15.3928 14.0714L15.6857 13.5L15.9928 14.0714H15.4H15.3928ZM18.8 12.8571V15H19.2857V13.7143L20.4143 15H20.8714V12.8571H20.4143V14.2143L19.2143 12.8571H18.7857H18.8ZM29.0286 13.9286C29.0281 14.0693 28.9999 14.2085 28.9456 14.3383C28.8914 14.4681 28.812 14.586 28.7122 14.6851C28.6124 14.7843 28.494 14.8628 28.3638 14.9162C28.2337 14.9696 28.0943 14.9969 27.9536 14.9964C27.8129 14.996 27.6736 14.9678 27.5438 14.9135C27.414 14.8592 27.2961 14.7799 27.197 14.6801C27.0978 14.5803 27.0193 14.4619 26.9659 14.3317C26.9125 14.2015 26.8852 14.0621 26.8857 13.9214C26.8857 13.6373 26.9986 13.3647 27.1995 13.1638C27.4004 12.9629 27.673 12.85 27.9571 12.85C28.2413 12.85 28.5138 12.9629 28.7147 13.1638C28.9157 13.3647 29.0286 13.6373 29.0286 13.9214V13.9286ZM28.55 13.9286C28.5591 14.0114 28.5507 14.0952 28.5252 14.1746C28.4998 14.254 28.4579 14.3271 28.4023 14.3891C28.3467 14.4512 28.2786 14.5009 28.2025 14.5348C28.1264 14.5688 28.044 14.5864 27.9607 14.5864C27.8774 14.5864 27.795 14.5688 27.7189 14.5348C27.6428 14.5009 27.5747 14.4512 27.5191 14.3891C27.4635 14.3271 27.4216 14.254 27.3962 14.1746C27.3707 14.0952 27.3623 14.0114 27.3714 13.9286C27.3874 13.7835 27.4564 13.6494 27.5651 13.552C27.6739 13.4546 27.8147 13.4007 27.9607 13.4007C28.1067 13.4007 28.2475 13.4546 28.3563 13.552C28.465 13.6494 28.534 13.7835 28.55 13.9286ZM24.8071 14.5857C24.672 14.7625 24.4851 14.8928 24.2725 14.9586C24.0598 15.0243 23.832 15.0222 23.6206 14.9526C23.4093 14.8829 23.2248 14.7492 23.0929 14.5699C22.961 14.3907 22.8882 14.1748 22.8847 13.9523C22.8811 13.7297 22.9469 13.5116 23.0729 13.3282C23.1989 13.1448 23.379 13.0051 23.588 12.9287C23.797 12.8523 24.0247 12.8428 24.2393 12.9017C24.4539 12.9606 24.6449 13.0848 24.7857 13.2571L24.45 13.6143C24.3794 13.501 24.2738 13.4139 24.1493 13.366C24.0247 13.3181 23.888 13.312 23.7597 13.3487C23.6314 13.3854 23.5186 13.4629 23.4382 13.5695C23.3579 13.676 23.3144 13.8058 23.3144 13.9393C23.3144 14.0727 23.3579 14.2025 23.4382 14.3091C23.5186 14.4156 23.6314 14.4931 23.7597 14.5299C23.888 14.5666 24.0247 14.5605 24.1493 14.5126C24.2738 14.4647 24.3794 14.3775 24.45 14.2643L24.8071 14.5857ZM20.3571 18.5714H17.8571V20.7143H20.3571C20.6413 20.7143 20.9138 20.6014 21.1147 20.4005C21.3157 20.1995 21.4286 19.927 21.4286 19.6429C21.4286 19.3587 21.3157 19.0862 21.1147 18.8852C20.9138 18.6843 20.6413 18.5714 20.3571 18.5714ZM10.8571 25.7143H8.57141V30H10.8571C11.5714 29.9571 12.1428 29.6286 12.1428 28.8643C12.1428 28.2571 11.6 27.8643 11.3357 27.7571C11.5214 27.7 11.8857 27.4214 11.8857 26.7429C11.8857 26.0714 11.2 25.7786 10.8571 25.7143ZM9.2857 26.4286H10.55C10.6921 26.4286 10.8283 26.485 10.9288 26.5855C11.0293 26.6859 11.0857 26.8222 11.0857 26.9643C11.0857 27.1064 11.0293 27.2426 10.9288 27.3431C10.8283 27.4436 10.6921 27.5 10.55 27.5H9.2857V26.4286ZM10.7714 28.2143H9.2857V29.2857H10.7714C10.9135 29.2857 11.0498 29.2293 11.1502 29.1288C11.2507 29.0283 11.3071 28.8921 11.3071 28.75C11.3071 28.6079 11.2507 28.4717 11.1502 28.3712C11.0498 28.2707 10.9135 28.2143 10.7714 28.2143ZM17.1428 30L18.9286 25.7143H19.6428L21.4286 30H20.7071L20.3786 29.2857H18.1786L17.8714 30H17.1428ZM19.2857 26.7857L18.5 28.5714H20.0786L19.2857 26.7857ZM27.1428 25.7143H26.4286V30H27.1428V25.7143ZM28.5714 25.7143H29.2857V29.2857H31.4286V30H28.5714V25.7143ZM24.8786 26.2857C24.7643 26.0929 24.3643 25.7143 23.6643 25.7143C22.7714 25.7143 22.2643 26.2857 22.2786 27.0143C22.2786 27.75 23 28.1071 23.8786 28.3286C24.5786 28.5071 24.2928 29.2857 23.7643 29.2857C23.5484 29.2942 23.3333 29.2537 23.1354 29.167C22.9374 29.0804 22.7617 28.9501 22.6214 28.7857L22.1428 29.3429C22.3714 29.5571 23 29.9857 23.6571 30C24.4857 30.0071 25.0143 29.4643 25 28.7857C24.9857 28.0929 24.7286 27.75 23.4857 27.4071C23.3286 27.3643 23.0357 27.1571 23.0357 26.9C23.0357 26.5571 23.4286 26.4286 23.6571 26.4286C23.8928 26.4286 24.2214 26.5643 24.4928 26.8286L24.8786 26.2857ZM15.0428 25.7143H12.8571V30H13.5714V28.5714H14.5286L15.5071 30H16.4286L15.3286 28.4286C15.5 28.4286 16.3071 28.1429 16.2857 27.1071C16.2961 26.7601 16.173 26.4222 15.9418 26.1631C15.7106 25.904 15.3889 25.7434 15.0428 25.7143ZM13.5714 26.4286H14.85C15.0394 26.4286 15.2211 26.5038 15.3551 26.6378C15.489 26.7717 15.5643 26.9534 15.5643 27.1429C15.5643 27.3323 15.489 27.514 15.3551 27.6479C15.2211 27.7819 15.0394 27.8571 14.85 27.8571H13.5714V26.4286Z" fill="white"/>
</g>
<defs>
<linearGradient id="paint0_linear_312_2506" x1="7.44286" y1="6.93572" x2="48.6786" y2="54.3" gradientUnits="userSpaceOnUse">
<stop stop-color="#1A1E21"/>
<stop offset="1" stop-color="#06060A"/>
</linearGradient>
<clipPath id="clip0_312_2506">
<rect width="40" height="40" rx="20" fill="white"/>
</clipPath>
</defs>
</svg>
