<svg width="24" height="24" viewBox="0 0 24 24" fill="none" xmlns="http://www.w3.org/2000/svg">
<path fill-rule="evenodd" clip-rule="evenodd" d="M2.46912 6.969C2.53879 6.89915 2.62155 6.84374 2.71267 6.80593C2.80379 6.76812 2.90147 6.74866 3.00012 6.74866C3.09877 6.74866 3.19645 6.76812 3.28757 6.80593C3.37869 6.84374 3.46145 6.89915 3.53112 6.969L12.0001 15.4395L20.4691 6.969C20.5389 6.89927 20.6216 6.84395 20.7127 6.80621C20.8039 6.76847 20.9015 6.74905 21.0001 6.74905C21.0987 6.74905 21.1964 6.76847 21.2875 6.80621C21.3786 6.84395 21.4614 6.89927 21.5311 6.969C21.6009 7.03873 21.6562 7.12151 21.6939 7.21262C21.7316 7.30373 21.7511 7.40138 21.7511 7.5C21.7511 7.59861 21.7316 7.69626 21.6939 7.78737C21.6562 7.87848 21.6009 7.96127 21.5311 8.031L12.5311 17.031C12.4615 17.1008 12.3787 17.1563 12.2876 17.1941C12.1965 17.2319 12.0988 17.2513 12.0001 17.2513C11.9015 17.2513 11.8038 17.2319 11.7127 17.1941C11.6216 17.1563 11.5388 17.1008 11.4691 17.031L2.46912 8.031C2.39928 7.96133 2.34386 7.87857 2.30605 7.78745C2.26824 7.69633 2.24878 7.59865 2.24878 7.5C2.24878 7.40135 2.26824 7.30366 2.30605 7.21255C2.34386 7.12143 2.39928 7.03867 2.46912 6.969Z" fill="#111111"/>
</svg>
