<svg width="25" height="25" viewBox="0 0 25 25" fill="none" xmlns="http://www.w3.org/2000/svg">
<g clip-path="url(#clip0_358_2)">
<path d="M24.1751 17.2989C23.0465 16.2802 22.6276 14.6768 23.134 13.2278C23.2555 12.8801 23.0554 12.5016 22.6991 12.4068C20.3775 11.7893 19.2082 9.18261 20.2836 7.03973C20.4721 6.66421 20.2486 6.21228 19.8366 6.13378C17.6195 5.71002 16.249 3.43455 16.9329 1.26409C17.0402 0.923511 16.8443 0.560694 16.5 0.464054C15.4024 0.156078 14.2641 0 13.116 0C6.22349 0 0.615967 5.60744 0.615967 12.5C0.615967 19.3925 6.22341 24.9999 13.1159 24.9999C17.9508 24.9999 22.24 22.2365 24.3179 18.0505C24.4442 17.7963 24.3857 17.4891 24.1751 17.2989ZM13.116 23.7335C6.92179 23.7335 1.88257 18.6941 1.88257 12.5C1.88257 6.30599 6.92187 1.26651 13.116 1.26651C13.9434 1.26651 14.7651 1.35663 15.5664 1.53487C15.1381 3.99542 16.5652 6.36526 18.861 7.17792C18.0478 9.67475 19.2999 12.4225 21.7656 13.4271C21.4225 15.038 21.8902 16.6961 22.9744 17.8883C21.0466 21.4094 17.324 23.7335 13.116 23.7335Z" fill="white"/>
<path d="M6.38582 12.9575C5.29336 12.9575 4.40454 13.8462 4.40454 14.9389C4.40454 16.0312 5.29327 16.9201 6.38582 16.9201C7.4782 16.9201 8.3671 16.0314 8.3671 14.9389C8.36702 13.8462 7.47828 12.9575 6.38582 12.9575ZM6.38582 15.6535C5.99166 15.6535 5.67106 15.3329 5.67106 14.9388C5.67106 14.5446 5.99166 14.2239 6.38582 14.2239C6.7799 14.2239 7.10059 14.5446 7.10059 14.9388C7.10059 15.3329 6.7799 15.6535 6.38582 15.6535Z" fill="white"/>
<path d="M14.4814 7.57861C14.4814 6.333 13.4681 5.3197 12.2225 5.3197C10.977 5.3197 9.96362 6.333 9.96362 7.57861C9.96362 8.82406 10.9769 9.83744 12.2225 9.83744C13.4681 9.83736 14.4814 8.82406 14.4814 7.57861ZM11.2302 7.57861C11.2302 7.03146 11.6754 6.58622 12.2226 6.58622C12.7699 6.58622 13.2149 7.03138 13.2149 7.57861C13.2149 8.12585 12.7698 8.57093 12.2226 8.57093C11.6755 8.57093 11.2302 8.12568 11.2302 7.57861Z" fill="white"/>
<path d="M14.1814 15.6535C12.5401 15.6535 11.2046 16.9889 11.2046 18.6305C11.2046 20.2719 12.54 21.6074 14.1814 21.6074C15.8229 21.6074 17.1584 20.272 17.1584 18.6305C17.1583 16.9889 15.8229 15.6535 14.1814 15.6535ZM14.1814 20.3407C13.2384 20.3407 12.4712 19.5735 12.4712 18.6303C12.4712 17.6871 13.2385 16.9199 14.1814 16.9199C15.1245 16.9199 15.8919 17.6871 15.8919 18.6303C15.8919 19.5735 15.1246 20.3407 14.1814 20.3407Z" fill="white"/>
</g>
<defs>
<clipPath id="clip0_358_2">
<rect width="25" height="25" fill="white"/>
</clipPath>
</defs>
</svg>
