<svg width="267" height="355" viewBox="0 0 267 355" fill="none" xmlns="http://www.w3.org/2000/svg">
<path d="M47.5654 138.245C45.0811 87.7966 85.3144 45.5334 135.824 45.5334C186.466 45.5334 226.748 88.0082 224.066 138.579L219.975 215.72C218.838 237.156 211.646 257.829 199.234 275.342L197.806 277.357C183.501 297.539 160.299 309.533 135.561 309.533C110.755 309.533 87.4981 297.474 73.2053 277.2L71.8876 275.331C59.5479 257.827 52.437 237.177 51.3837 215.786L47.5654 138.245Z" fill="white" stroke="#2B2B2B" stroke-width="6"/>
<path d="M156.5 256.908C147.5 265.908 127.5 265.908 118.5 256.908" stroke="#2B2B2B" stroke-width="6"/>
<rect x="92" y="175.283" width="9" height="14" rx="4.5" fill="#2B2B2B"/>
<rect x="169" y="175.283" width="9" height="14" rx="4.5" fill="#2B2B2B"/>
<path d="M78 170.283C80.3442 167.939 83.4347 166.206 86.8827 165.083M116 170.283C111.086 165.369 102.892 163.138 95 163.591M74 164.283L80.5 167.783M76 161.283L84 166.283M80 159.283L86.8827 165.083M86.8827 165.083C87.7352 164.805 88.6096 164.565 89.5 164.362M84.8827 157.283L89.5 164.362M89.5 164.362C90.3213 164.174 91.1561 164.019 92 163.895M90 157.283L92 163.895M92 163.895C92.9901 163.75 93.9926 163.648 95 163.591M95 159.283V163.591" stroke="#2B2B2B" stroke-width="3"/>
<path d="M191 170.283C188.656 167.939 185.565 166.206 182.117 165.083M153 170.283C157.914 165.369 166.108 163.138 174 163.591M195 164.283L188.5 167.783M193 161.283L185 166.283M189 159.283L182.117 165.083M182.117 165.083C181.265 164.805 180.39 164.565 179.5 164.362M184.117 157.283L179.5 164.362M179.5 164.362C178.679 164.174 177.844 164.019 177 163.895M179 157.283L177 163.895M177 163.895C176.01 163.75 175.007 163.648 174 163.591M174 159.283V163.591" stroke="#2B2B2B" stroke-width="3"/>
<path d="M148 191.533V226.994C148 230.855 146.293 234.939 142.464 235.427C136.617 236.171 129.63 232.927 125 228.48" stroke="#2B2B2B" stroke-width="3"/>
<path fill-rule="evenodd" clip-rule="evenodd" d="M237.211 115.494L264.107 181.699C272.656 202.741 257.173 225.743 234.46 225.743H217L222.832 151.384C219.212 151.622 215.541 151.743 211.827 151.743C169.828 151.743 133.277 136.193 114.422 113.257C101.613 132.198 79.26 144.743 53.8275 144.743C51.7388 144.743 49.671 144.659 47.6275 144.493L54.0001 225.743H32.3739C8.93021 225.743 -6.55555 201.366 3.4072 180.144L36.2279 110.234C51.1808 69.7329 90.1314 40.856 135.827 40.856C183.477 40.856 223.793 72.2565 237.211 115.494Z" fill="#2B2B2B"/>
</svg>
