<svg width="256" height="365" viewBox="0 0 256 365" fill="none" xmlns="http://www.w3.org/2000/svg">
<path d="M35 138.129C35 86.7667 76.6375 45.1292 128 45.1292C179.362 45.1292 221 86.7667 221 138.129V216.129C221 267.492 179.362 309.129 128 309.129C76.6375 309.129 35 267.492 35 216.129V138.129Z" fill="white" stroke="#2B2B2B" stroke-width="6"/>
<path fill-rule="evenodd" clip-rule="evenodd" d="M224 207.632V212.629C224 265.649 181.019 308.629 128 308.629C74.9807 308.629 32 265.649 32 212.629V207.632C32.1728 207.63 32.3458 207.629 32.5189 207.629C33.3948 207.629 34.2658 207.649 35.1315 207.689C35.1196 208.167 35.1135 208.647 35.1135 209.129C35.1135 235.363 53.0028 256.629 75.0703 256.629C83.1019 256.629 90.5801 253.812 96.8438 248.964C105.673 243.08 116.414 239.629 128 239.629C139.586 239.629 150.327 243.08 159.156 248.964C165.42 253.812 172.898 256.629 180.93 256.629C202.997 256.629 220.886 235.363 220.886 209.129C220.886 208.666 220.881 208.205 220.87 207.745C221.906 207.679 222.949 207.641 224 207.632Z" fill="#BCBCBC"/>
<path d="M70.3999 263.129L72.4756 267.129M95.3081 278.129L98.9405 275.129M91.1567 255.629L91.6756 260.629M158.616 276.629L160.692 272.629M97.9026 293.129L100.497 297.129M183.524 260.629L184.043 266.129M198.573 249.129L200.649 253.129M106.205 242.129L108.281 246.629M49.1243 249.629L52.7567 246.129M165.881 252.129L164.324 256.629M172.627 275.129L170.032 269.129M157.578 292.129L158.616 297.129M192.865 286.629L195.459 290.629M57.9459 281.629L53.2756 287.129M54.3135 263.129L50.1621 267.129M103.092 306.129L100.497 311.129" stroke="#2B2B2B" stroke-width="3"/>
<path d="M35 138.129C35 86.7667 76.6375 45.1292 128 45.1292V45.1292C179.362 45.1292 221 86.7667 221 138.129V216.129C221 267.492 179.362 309.129 128 309.129V309.129C76.6375 309.129 35 267.492 35 216.129V138.129Z" stroke="#2B2B2B" stroke-width="6"/>
<path d="M114 288.129C120.395 281.463 134.605 281.463 141 288.129" stroke="#2B2B2B" stroke-width="3"/>
<path d="M127.5 297.129V288.129" stroke="#2B2B2B" stroke-width="3"/>
<path d="M153 262.129L140.909 256.067C139.712 255.467 138.327 255.375 137.044 255.756C135.017 256.358 131.912 257.175 130 257.176C128.112 257.177 125.524 256.422 123.781 255.829C122.55 255.41 121.205 255.401 119.998 255.886L107 261.117" stroke="#2B2B2B" stroke-width="6"/>
<path d="M148 265.129C137.825 275.37 119.325 273.508 111 265.129M124.214 245.129L127.45 247.077C129.036 248.032 131.021 248.032 132.607 247.077L135.843 245.129" stroke="#2B2B2B" stroke-width="3"/>
<rect x="82.5" y="170.879" width="13" height="22" rx="6.5" fill="#2B2B2B"/>
<rect x="159.5" y="170.879" width="13" height="22" rx="6.5" fill="#2B2B2B"/>
<path d="M70 163.879C79 154.879 99 154.879 108 163.879" stroke="#2B2B2B" stroke-width="3"/>
<path d="M147 163.879C156 154.879 176 154.879 185 163.879" stroke="#2B2B2B" stroke-width="3"/>
<path d="M140 183.129V226.41C140 229.911 138.679 233.521 135.446 234.865C129.135 237.49 120.924 236.027 116 230.478" stroke="#2B2B2B" stroke-width="3"/>
<path fill-rule="evenodd" clip-rule="evenodd" d="M38 144.014C38.0054 144.014 38.0107 144.014 38.0161 144.013C38.0054 143.554 38 143.092 38 142.629C38 116.396 55.237 95.1292 76.5 95.1292C84.2388 95.1292 91.4444 97.9463 97.4797 102.795C105.987 108.678 116.337 112.129 127.5 112.129C138.847 112.129 149.354 108.564 157.939 102.502C158.61 102.028 159.368 101.714 160.166 101.544C165.847 97.4654 172.453 95.1292 179.5 95.1292C200.757 95.1292 217.991 116.384 218 142.608V137.452C218 87.746 177.706 47.4517 128 47.4517C78.2944 47.4517 38 87.746 38 137.452L38 142.629L38 144.014ZM218 142.651V144.108C217.994 144.108 217.988 144.108 217.982 144.108C217.994 143.624 218 143.138 218 142.651Z" fill="#BCBCBC"/>
<path d="M66.4 71.4517L68.4756 75.4517M91.3081 86.4517L94.9405 83.4517M87.1567 63.9517L87.6756 68.9517M154.616 84.9517L156.692 80.9517M109.903 85.4517L112.497 89.4517M179.524 68.9517L180.043 74.4517M194.573 86.4517L196.649 90.4517M111.205 62.4517L113.281 66.9517M133.124 57.9517L136.757 54.4517M161.881 60.4517L160.324 64.9517M168.627 83.4517L166.032 77.4517M145.578 92.4517L146.616 97.4517M180.865 86.9517L183.459 90.9517M58.9459 89.9517L54.2756 95.4517M138.313 71.4517L134.162 75.4517M129.092 96.4517L126.497 101.452" stroke="#2B2B2B" stroke-width="3"/>
<path d="M26.5022 161.309C13.9893 157.919 2.10423 168.469 3.9864 181.296L5.63053 192.5C7.08744 202.429 13.9305 210.73 23.3985 214.055L35 218.129L35 163.611L26.5022 161.309Z" fill="white" stroke="#2B2B2B" stroke-width="6"/>
<path d="M16 168.129L22.8944 169.383C25.2719 169.815 27 171.886 27 174.302V195.629" stroke="#2B2B2B" stroke-width="3"/>
<path d="M27 178.383C22.1559 177.766 19.7889 178.246 16 180.129" stroke="#2B2B2B" stroke-width="3"/>
<path d="M229.498 161.309C242.011 157.919 253.896 168.469 252.014 181.296L250.369 192.5C248.913 202.429 242.07 210.73 232.601 214.055L221 218.129L221 163.611L229.498 161.309Z" fill="white" stroke="#2B2B2B" stroke-width="6"/>
<path d="M240 168.129L233.106 169.383C230.728 169.815 229 171.886 229 174.302V195.629" stroke="#2B2B2B" stroke-width="3"/>
<path d="M229 178.383C233.844 177.766 236.211 178.246 240 180.129" stroke="#2B2B2B" stroke-width="3"/>
<path d="M26 158.129C58.7925 150.608 79.5843 149.105 106.924 153.827C120.411 156.157 134.185 156.36 147.695 154.171C176.076 149.572 196.56 150.825 228 158.129" stroke="#2B2B2B" stroke-width="6"/>
<path d="M49 153.129L53.9161 178.986C56.2484 191.253 66.9718 200.129 79.4585 200.129H93C107.359 200.129 119 188.489 119 174.129V155.108" stroke="#2B2B2B" stroke-width="6"/>
<path d="M206 153.129L201.084 178.986C198.752 191.253 188.028 200.129 175.541 200.129H162C147.641 200.129 136 188.489 136 174.129V155.108" stroke="#2B2B2B" stroke-width="6"/>
<path fill-rule="evenodd" clip-rule="evenodd" d="M28.0554 109.076C49.1506 94.7843 74.6004 86.4362 102 86.4362H154C181.4 86.4362 206.849 94.7843 227.945 109.076C226.172 55.403 182.104 12.4362 128 12.4362C73.8961 12.4362 29.8276 55.403 28.0554 109.076Z" fill="#2B2B2B"/>
<path d="M20 104.169C20 96.4652 24.6654 89.4807 31.8543 86.7126C102.026 59.6927 147.818 59.8241 223.646 86.8918C231.088 89.5482 236 96.6642 236 104.566V148.444C236 152.887 230.387 155.4 226.695 152.927C182.165 123.109 76.7322 119.781 29.2374 152.809C25.5894 155.345 20 152.887 20 148.444V104.169Z" fill="#2B2B2B"/>
<path d="M51.5 81.4361C80.3052 71.6132 97.1591 68.8459 128.5 68.9361" stroke="white" stroke-width="3"/>
<path d="M31.5 97.4362V139.436" stroke="white" stroke-width="3"/>
<path d="M48 89.4362V104.436" stroke="white" stroke-width="3"/>
<path d="M222 119.436V134.436" stroke="white" stroke-width="3"/>
</svg>
