<svg width="256" height="334" viewBox="0 0 256 334" fill="none" xmlns="http://www.w3.org/2000/svg">
<path d="M128 60.7584C76.6375 60.7584 35 102.396 35 153.758V206.758L43.8921 250.133C45.6819 262.702 50.6975 288.929 61.209 296.048L90.3024 322.397C98.3189 327.826 104.873 330.525 114.545 330.093L127 329.536L140.32 330.119C149.826 330.534 156.218 327.927 164.148 322.67L194.336 295.987C205.008 288.913 210.162 262.628 212.005 249.957L221 206.758V153.758C221 102.396 179.362 60.7584 128 60.7584Z" fill="white" stroke="#2B2B2B" stroke-width="6"/>
<path d="M127.5 312.758V303.758" stroke="#2B2B2B" stroke-width="3"/>
<path d="M153 277.758L140.909 271.696C139.712 271.096 138.327 271.005 137.044 271.385C135.017 271.987 131.912 272.804 130 272.805C128.112 272.806 125.524 272.052 123.781 271.458C122.55 271.039 121.205 271.03 119.998 271.516L107 276.747" stroke="#2B2B2B" stroke-width="6"/>
<path d="M148 280.758C137.825 291 119.325 289.138 111 280.758M124.214 260.758L127.45 262.706C129.036 263.661 131.021 263.661 132.607 262.706L135.843 260.758" stroke="#2B2B2B" stroke-width="3"/>
<path d="M79 182.758H94V189.258C94 193.401 90.6421 196.758 86.5 196.758C82.3579 196.758 79 193.401 79 189.258V182.758Z" fill="#2B2B2B"/>
<path d="M174 182.758H159V189.258C159 193.401 162.358 196.758 166.5 196.758C170.642 196.758 174 193.401 174 189.258V182.758Z" fill="#2B2B2B"/>
<path d="M64.0733 188.262C75.7211 178.53 99.4763 180.659 109.208 192.307" stroke="#2B2B2B" stroke-width="3"/>
<path d="M188.88 188.744C177.439 178.769 153.645 180.398 143.67 191.838" stroke="#2B2B2B" stroke-width="3"/>
<path d="M112.5 245.758C116.434 247.817 119.482 249.364 123.133 251.075C126.785 252.786 129.986 252.395 133.867 251.075C137.747 249.755 142.287 247.806 145.454 245.926C148.62 244.045 150.022 240.325 148.765 236.552C146.315 229.202 140.048 226.745 139.145 217.539L137.5 200.758" stroke="#2B2B2B" stroke-width="3"/>
<path fill-rule="evenodd" clip-rule="evenodd" d="M35 192.6V153.758C35 106.004 70.9927 66.6567 117.33 61.3639C107.019 47.6118 93.6317 39.3067 79 39.3067C46.4152 39.3067 20 80.4965 20 131.307C20 154.85 25.6714 176.328 35 192.6ZM221 190.81C229.732 174.768 235 153.997 235 131.307C235 80.4965 208.585 39.3067 176 39.3067C161.404 39.3067 148.046 47.5712 137.746 61.263C184.528 66.1346 221 105.687 221 153.758V190.81Z" fill="#2B2B2B"/>
<path fill-rule="evenodd" clip-rule="evenodd" d="M65.875 149.307C81.4742 149.307 97.7773 141.031 113.298 142.597C117.925 143.064 122.668 143.307 127.5 143.307C132.486 143.307 137.377 143.049 142.143 142.552C157.782 140.923 174.251 149.307 189.975 149.307C207.579 149.307 221.85 130.279 221.85 106.807C221.85 99.8791 220.607 93.3386 218.402 87.5602C218.134 86.8577 218 86.1114 218 85.3595C218 53.3561 177.482 15.3066 127.5 15.3066C77.5182 15.3066 37 53.3561 37 85.3595C37 87.3863 36.7417 89.41 36.1721 91.3552C34.7697 96.1442 34 101.356 34 106.807C34 130.279 48.2709 149.307 65.875 149.307Z" fill="#2B2B2B"/>
<path d="M148.991 26.7642C122.146 1.63264 82.3529 -0.127816 63.3247 47.0345" stroke="#2B2B2B" stroke-width="3"/>
<path d="M37.4497 169.424C45.9237 159.697 47.7613 142.762 36.1202 129.769" stroke="#2B2B2B" stroke-width="3"/>
<path d="M87.3652 118.972C88.1847 131.846 98.7909 145.175 116.205 146.221" stroke="white" stroke-width="3"/>
<path d="M39.9441 112.307C35.0801 124.255 38.8302 140.871 54.0541 149.39" stroke="white" stroke-width="3"/>
<path d="M122.301 87.3067C114.32 98.4881 105.264 123.028 109.301 148.307" stroke="white" stroke-width="3"/>
<path d="M156.155 125.307C155.77 133.86 152.402 140.818 147.551 145.807" stroke="white" stroke-width="3"/>
<path d="M168.938 113.307C167.529 127.096 159.195 138.493 147.49 146.807" stroke="white" stroke-width="3"/>
<path d="M74.5701 40.2184C63.6166 35.2891 47.754 38.8294 38.8238 53.7952" stroke="#2B2B2B" stroke-width="3"/>
<path d="M200.732 154.329C216.947 138.102 223.385 109.404 206.304 86.9309" stroke="#2B2B2B" stroke-width="3"/>
<path d="M236.691 96.369C231.641 73.9925 210.825 53.2144 182.702 55.642" stroke="#2B2B2B" stroke-width="3"/>
<path d="M148.806 50.8019C148.806 17.8067 127.5 -9.6933 88.4952 6.1134" stroke="#2B2B2B" stroke-width="3"/>
<path d="M135.669 46.3147C147.543 23.4082 169.438 9.48097 191.5 19.7907" stroke="#2B2B2B" stroke-width="3"/>
<path d="M153.362 27.2879C185.138 18.2957 217.65 33.6801 213.462 79.872" stroke="#2B2B2B" stroke-width="3"/>
<path fill-rule="evenodd" clip-rule="evenodd" d="M18.3347 188.271C16.866 179.091 25.9666 171.814 34.5981 175.267C34.8424 175.365 35.006 175.597 35.0156 175.86L36.9857 230.038C36.9917 230.202 36.8107 230.304 36.6735 230.215C29.5173 225.548 24.5002 218.237 22.7194 209.881L18.9999 192.428L18.3347 188.271ZM237.664 188.279C239.133 179.096 230.029 171.816 221.394 175.27C221.154 175.366 220.991 175.593 220.977 175.852L218.021 230.044C218.012 230.207 218.189 230.314 218.329 230.23C226.092 225.573 231.571 217.9 233.458 209.046L237 192.428L237.664 188.279Z" fill="white"/>
<path d="M34.5981 175.267L33.4839 178.053L33.4839 178.053L34.5981 175.267ZM18.3347 188.271L15.3724 188.745L18.3347 188.271ZM35.0156 175.86L32.0176 175.969L32.0176 175.969L35.0156 175.86ZM36.9857 230.038L39.9837 229.929L39.9837 229.929L36.9857 230.038ZM36.6735 230.215L35.0347 232.728L35.0348 232.728L36.6735 230.215ZM22.7194 209.881L25.6535 209.256L22.7194 209.881ZM18.9999 192.428L16.0376 192.902L16.0497 192.978L16.0658 193.053L18.9999 192.428ZM221.394 175.27L222.508 178.056L222.508 178.056L221.394 175.27ZM237.664 188.279L240.626 188.753L240.626 188.753L237.664 188.279ZM220.977 175.852L217.981 175.688L217.981 175.688L220.977 175.852ZM218.021 230.044L221.016 230.207L221.016 230.207L218.021 230.044ZM218.329 230.23L216.786 227.658L216.786 227.658L218.329 230.23ZM233.458 209.046L230.524 208.421L230.524 208.421L233.458 209.046ZM237 192.428L239.934 193.053L239.95 192.978L239.962 192.902L237 192.428ZM35.7122 172.482C24.9172 168.164 13.5355 177.264 15.3724 188.745L21.2971 187.797C20.1965 180.918 27.0159 175.465 33.4839 178.053L35.7122 172.482ZM38.0136 175.751C37.9609 174.302 37.0587 173.02 35.7122 172.482L33.4839 178.053C32.626 177.709 32.0512 176.893 32.0176 175.969L38.0136 175.751ZM39.9837 229.929L38.0136 175.751L32.0176 175.969L33.9877 230.147L39.9837 229.929ZM35.0348 232.728C37.2088 234.146 40.0781 232.523 39.9837 229.929L33.9877 230.147C33.9053 227.881 36.4126 226.463 38.3123 227.702L35.0348 232.728ZM19.7853 210.506C21.7314 219.638 27.2142 227.627 35.0347 232.728L38.3123 227.702C31.8204 223.468 27.269 216.836 25.6535 209.256L19.7853 210.506ZM16.0658 193.053L19.7853 210.506L25.6535 209.256L21.934 191.802L16.0658 193.053ZM15.3724 188.745L16.0376 192.902L21.9622 191.954L21.2971 187.797L15.3724 188.745ZM222.508 178.056C228.979 175.467 235.803 180.923 234.701 187.805L240.626 188.753C242.464 177.269 231.078 168.165 220.28 172.485L222.508 178.056ZM223.972 176.015C223.923 176.922 223.352 177.718 222.508 178.056L220.28 172.485C218.956 173.014 218.059 174.264 217.981 175.688L223.972 176.015ZM221.016 230.207L223.972 176.015L217.981 175.688L215.025 229.881L221.016 230.207ZM216.786 227.658C218.708 226.504 221.139 227.969 221.016 230.207L215.025 229.881C214.885 232.446 217.67 234.124 219.873 232.802L216.786 227.658ZM230.524 208.421C228.811 216.461 223.835 223.428 216.786 227.658L219.873 232.803C228.349 227.717 234.332 219.339 236.392 209.672L230.524 208.421ZM234.066 191.802L230.524 208.421L236.392 209.672L239.934 193.053L234.066 191.802ZM234.701 187.805L234.038 191.954L239.962 192.902L240.626 188.753L234.701 187.805Z" fill="#2B2B2B"/>
<path d="M25 184.758V184.758C30.3505 185.947 34.2896 190.626 34.4655 196.104L35 212.758" stroke="#2B2B2B" stroke-width="3"/>
<path d="M232.618 185.447V185.447C227.164 185.995 222.7 190.177 221.879 195.596L219.382 212.07" stroke="#2B2B2B" stroke-width="3"/>
<path d="M221.429 220.004C226.323 219.131 230.997 222.391 231.87 227.284C232.742 232.177 229.483 236.852 224.59 237.724C221.31 238.309 218.129 237.038 216.125 234.663" stroke="#2B2B2B" stroke-width="3"/>
</svg>
