<svg width="256" height="365" viewBox="0 0 256 365" fill="none" xmlns="http://www.w3.org/2000/svg">
<path d="M35 138.275C35 86.9127 76.6375 45.2751 128 45.2751C179.362 45.2751 221 86.9127 221 138.275V216.275C221 267.638 179.362 309.275 128 309.275C76.6375 309.275 35 267.638 35 216.275V138.275Z" fill="white" stroke="#2B2B2B" stroke-width="6"/>
<path fill-rule="evenodd" clip-rule="evenodd" d="M224 220.275V218.613C223.499 218.808 223.029 219.083 222.61 219.431L178.505 256.117C176.21 258.025 172.778 257.497 170.882 255.192C160.907 243.065 145.407 235.275 128 235.275C109.491 235.275 93.1377 244.083 83.2905 257.546C81.451 260.061 77.8438 260.734 75.4482 258.742L32.0281 222.626C33.2761 274.559 75.7663 316.275 128 316.275C181.019 316.275 224 273.294 224 220.275ZM164 263.775V273.275C164 280.455 158.18 286.275 151 286.275H148.164C147.281 277.827 138.591 271.195 128 271.195C117.409 271.195 108.719 277.827 107.836 286.275H105C97.8202 286.275 91.9999 280.455 91.9999 273.275V263.775V263.275H92.0104C92.4766 252.184 108.411 243.275 128 243.275C147.589 243.275 163.523 252.184 163.989 263.275H164V263.775Z" fill="#2B2B2B"/>
<path d="M35 138.275C35 86.9127 76.6375 45.2751 128 45.2751V45.2751C179.362 45.2751 221 86.9127 221 138.275V216.275C221 267.638 179.362 309.275 128 309.275V309.275C76.6375 309.275 35 267.638 35 216.275V138.275Z" stroke="#2B2B2B" stroke-width="6"/>
<path d="M114 288.275C120.395 281.608 134.605 281.608 141 288.275" stroke="#2B2B2B" stroke-width="3"/>
<path d="M127.5 297.275V288.275" stroke="#2B2B2B" stroke-width="3"/>
<path d="M154 258.275C148.316 257.233 144.864 256.129 139.432 255.357C136.346 254.919 133.156 256.378 130 256.38C126.756 256.382 123.548 254.938 120.526 255.357C114.576 256.183 111.053 257.233 106 258.275" stroke="#2B2B2B" stroke-width="6"/>
<path d="M140 265.275C133.95 271.127 122.95 270.063 118 265.275" stroke="#2B2B2B" stroke-width="3"/>
<path d="M82 169.57H95V174.07C95 177.659 92.0899 180.57 88.5 180.57C84.9101 180.57 82 177.659 82 174.07V169.57Z" fill="#2B2B2B"/>
<path d="M159 169.57H172V174.07C172 177.659 169.09 180.57 165.5 180.57C161.91 180.57 159 177.659 159 174.07V169.57Z" fill="#2B2B2B"/>
<path d="M70 176.32C79 167.32 99 167.32 108 176.32" stroke="#2B2B2B" stroke-width="3"/>
<path d="M147 176.32C156 167.32 176 167.32 185 176.32" stroke="#2B2B2B" stroke-width="3"/>
<path d="M142 210.275L144.465 222.449C145.411 227.121 143.691 232.145 139.076 233.339C130.746 235.496 119.487 233.925 114 228.624" stroke="#2B2B2B" stroke-width="3"/>
<path fill-rule="evenodd" clip-rule="evenodd" d="M13.2792 174.439C11.7764 165.047 20.7084 157.371 29.7675 160.27L35.0001 161.945L35.0001 207.945L16.6764 182.64C14.9169 180.211 13.7532 177.401 13.2792 174.439ZM242.721 174.439C244.224 165.047 235.292 157.371 226.233 160.27L221 161.945V207.945L239.324 182.64C241.083 180.211 242.247 177.401 242.721 174.439Z" fill="white"/>
<path d="M29.7675 160.27L30.6819 157.413L29.7675 160.27ZM13.2792 174.439L10.3169 174.913L13.2792 174.439ZM35.0001 161.945L38.0001 161.945V159.755L35.9144 159.087L35.0001 161.945ZM35.0001 207.945L32.5703 209.704L38.0001 217.202V207.945H35.0001ZM16.6764 182.64L19.1063 180.881H19.1063L16.6764 182.64ZM226.233 160.27L227.147 163.127V163.127L226.233 160.27ZM242.721 174.439L245.683 174.913V174.913L242.721 174.439ZM221 161.945L220.086 159.087L218 159.755V161.945H221ZM221 207.945H218V217.202L223.43 209.704L221 207.945ZM239.324 182.64L241.754 184.4V184.4L239.324 182.64ZM30.6819 157.413C19.4928 153.832 8.46078 163.312 10.3169 174.913L16.2415 173.965C15.0921 166.781 21.924 160.91 28.8532 163.127L30.6819 157.413ZM35.9144 159.087L30.6819 157.413L28.8532 163.127L34.0858 164.802L35.9144 159.087ZM38.0001 207.945L38.0001 161.945L32.0001 161.945L32.0001 207.945H38.0001ZM14.2466 184.4L32.5703 209.704L37.4299 206.185L19.1063 180.881L14.2466 184.4ZM10.3169 174.913C10.8651 178.339 12.2112 181.589 14.2466 184.4L19.1063 180.881C17.6225 178.832 16.6412 176.463 16.2415 173.965L10.3169 174.913ZM227.147 163.127C234.076 160.91 240.908 166.781 239.759 173.965L245.683 174.913C247.539 163.312 236.507 153.832 225.318 157.413L227.147 163.127ZM221.914 164.802L227.147 163.127L225.318 157.413L220.086 159.087L221.914 164.802ZM224 207.945V161.945H218V207.945H224ZM236.894 180.881L218.57 206.185L223.43 209.704L241.754 184.4L236.894 180.881ZM239.759 173.965C239.359 176.463 238.378 178.832 236.894 180.881L241.754 184.4C243.789 181.589 245.135 178.339 245.683 174.913L239.759 173.965Z" fill="#2B2B2B"/>
<path d="M233 167.275L231.853 167.484C226.147 168.521 222 173.491 222 179.29V194.775" stroke="#2B2B2B" stroke-width="3"/>
<path d="M222 177.529C226.844 176.911 229.211 177.392 233 179.275" stroke="#2B2B2B" stroke-width="3"/>
<path d="M23 166.275L24.1466 166.484C29.8525 167.521 34 172.491 34 178.29V193.775" stroke="#2B2B2B" stroke-width="3"/>
<path d="M34 176.529C29.1559 175.911 26.7889 176.392 23 178.275" stroke="#2B2B2B" stroke-width="3"/>
<path d="M32 165.83H47M116 169.714C116.196 169.755 116.393 169.797 116.591 169.838C123.644 171.33 130.923 171.423 138 170.05V170.05M224 165.83H207M77.5 144.275C115.232 141.592 136.703 141.662 175.5 144.275" stroke="#2B2B2B" stroke-width="6"/>
<path d="M49.2056 184.706L45.7173 164.538C44.7455 158.92 48.2239 153.444 53.8049 152.275C74.866 147.864 92.819 148.248 112.178 153.89C117.326 155.39 120.298 160.644 119.339 165.919L114.09 194.78C112.88 201.437 107.082 206.275 100.316 206.275H74.8252C62.1755 206.275 51.3615 197.171 49.2056 184.706Z" stroke="#2B2B2B" stroke-width="6"/>
<path d="M204.794 184.706L208.283 164.538C209.255 158.92 205.776 153.444 200.195 152.275C179.134 147.864 161.181 148.248 141.822 153.89C136.674 155.39 133.702 160.644 134.661 165.919L139.91 194.78C141.12 201.437 146.918 206.275 153.684 206.275H179.175C191.825 206.275 202.639 197.171 204.794 184.706Z" stroke="#2B2B2B" stroke-width="6"/>
<path fill-rule="evenodd" clip-rule="evenodd" d="M28.0554 109.222C49.1506 94.9303 74.6004 86.5822 102 86.5822H154C181.4 86.5822 206.849 94.9303 227.945 109.222C226.172 55.549 182.104 12.5822 128 12.5822C73.8961 12.5822 29.8276 55.549 28.0554 109.222Z" fill="#2B2B2B"/>
<path d="M20 104.315C20 96.6112 24.6654 89.6267 31.8543 86.8586C102.026 59.8387 147.818 59.9701 223.646 87.0378C231.088 89.6942 236 96.8102 236 104.712V148.59C236 153.033 230.387 155.546 226.695 153.073C182.165 123.255 76.7322 119.927 29.2374 152.955C25.5894 155.491 20 153.033 20 148.59V104.315Z" fill="#2B2B2B"/>
<path d="M51.5 81.5821C80.3052 71.7591 97.1591 68.9918 128.5 69.0821" stroke="white" stroke-width="3"/>
<path d="M31.5 97.5822V139.582" stroke="white" stroke-width="3"/>
<path d="M48 89.5822V104.582" stroke="white" stroke-width="3"/>
<path d="M222 119.582V134.582" stroke="white" stroke-width="3"/>
</svg>
