<svg width="256" height="365" viewBox="0 0 256 365" fill="none" xmlns="http://www.w3.org/2000/svg">
<path d="M35 138.388C35 87.0252 76.6375 45.3876 128 45.3876C179.362 45.3876 221 87.0252 221 138.388V216.388C221 267.75 179.362 309.388 128 309.388C76.6375 309.388 35 267.75 35 216.388V138.388Z" fill="white" stroke="#2B2B2B" stroke-width="6"/>
<path fill-rule="evenodd" clip-rule="evenodd" d="M224 207.89V212.888C224 265.907 181.019 308.888 128 308.888C74.9807 308.888 32 265.907 32 212.888V207.89C32.1728 207.888 32.3458 207.888 32.5189 207.888C33.3948 207.888 34.2658 207.908 35.1315 207.947C35.1196 208.425 35.1135 208.906 35.1135 209.388C35.1135 235.621 53.0028 256.888 75.0703 256.888C83.1019 256.888 90.5801 254.071 96.8438 249.222C105.673 243.339 116.414 239.888 128 239.888C139.586 239.888 150.327 243.339 159.156 249.222C165.42 254.071 172.898 256.888 180.93 256.888C202.997 256.888 220.886 235.621 220.886 209.388C220.886 208.925 220.881 208.463 220.87 208.004C221.906 207.938 222.949 207.899 224 207.89Z" fill="#BCBCBC"/>
<path d="M70.3999 263.388L72.4756 267.388M95.3081 278.388L98.9405 275.388M91.1567 255.888L91.6756 260.888M158.616 276.888L160.692 272.888M97.9026 293.388L100.497 297.388M183.524 260.888L184.043 266.388M198.573 249.388L200.649 253.388M106.205 242.388L108.281 246.888M49.1243 249.888L52.7567 246.388M165.881 252.388L164.324 256.888M172.627 275.388L170.032 269.388M157.578 292.388L158.616 297.388M192.865 286.888L195.459 290.888M57.9459 281.888L53.2756 287.388M54.3135 263.388L50.1621 267.388M103.092 306.388L100.497 311.388" stroke="#2B2B2B" stroke-width="3"/>
<path d="M35 138.388C35 87.0252 76.6375 45.3876 128 45.3876V45.3876C179.362 45.3876 221 87.0252 221 138.388V216.388C221 267.75 179.362 309.388 128 309.388V309.388C76.6375 309.388 35 267.75 35 216.388V138.388Z" stroke="#2B2B2B" stroke-width="6"/>
<path d="M114 288.388C120.395 281.721 134.605 281.721 141 288.388" stroke="#2B2B2B" stroke-width="3"/>
<path d="M127.5 297.388V288.388" stroke="#2B2B2B" stroke-width="3"/>
<path d="M148.5 256.763C139.5 265.763 119.5 265.763 110.5 256.763" stroke="#2B2B2B" stroke-width="6"/>
<rect x="82.5" y="171.138" width="13" height="22" rx="6.5" fill="#2B2B2B"/>
<rect x="159.5" y="171.138" width="13" height="22" rx="6.5" fill="#2B2B2B"/>
<path d="M70 164.138C79 155.138 99 155.138 108 164.138" stroke="#2B2B2B" stroke-width="3"/>
<path d="M147 164.138C156 155.138 176 155.138 185 164.138" stroke="#2B2B2B" stroke-width="3"/>
<path d="M140 183.388V226.668C140 230.169 138.679 233.779 135.446 235.124C129.135 237.748 120.924 236.286 116 230.737" stroke="#2B2B2B" stroke-width="3"/>
<path fill-rule="evenodd" clip-rule="evenodd" d="M22 142.938C25.3808 87.445 71.4572 43.4842 127.801 43.4843C183.971 43.4843 229.937 87.1743 233.57 142.425C229.511 143.569 225.253 144.237 220.86 144.365C220.827 144.366 220.801 144.392 220.801 144.425C220.801 144.458 220.775 144.484 220.742 144.484H169.668C167.115 144.484 164.972 142.56 164.697 140.022L158.801 85.4842V139.484C158.801 142.246 156.563 144.484 153.801 144.484H34.8505C34.8233 144.484 34.8013 144.462 34.8013 144.435C34.8013 144.408 34.7789 144.385 34.7516 144.386C34.6016 144.387 34.4515 144.388 34.3013 144.388C30.0649 144.388 25.9458 143.886 22 142.938Z" fill="#2B2B2B"/>
<path d="M146.588 31.2584C138.238 32.5199 130.107 39.9379 130.341 50.9061" stroke="#2B2B2B" stroke-width="3"/>
<path d="M119.801 31.2584C119.801 37.9251 124.841 45.1473 133.801 46.2584" stroke="#2B2B2B" stroke-width="3"/>
<path d="M26.5022 161.567C13.9893 158.177 2.10423 168.728 3.9864 181.554L5.63053 192.759C7.08744 202.687 13.9305 210.989 23.3985 214.314L35 218.388L35 163.869L26.5022 161.567Z" fill="white" stroke="#2B2B2B" stroke-width="6"/>
<path d="M16 168.388L22.8944 169.641C25.2719 170.073 27 172.144 27 174.561V195.888" stroke="#2B2B2B" stroke-width="3"/>
<path d="M27 178.642C22.1559 178.024 19.7889 178.505 16 180.388" stroke="#2B2B2B" stroke-width="3"/>
<path d="M229.498 161.567C242.011 158.177 253.896 168.728 252.014 181.554L250.369 192.759C248.913 202.687 242.07 210.989 232.601 214.314L221 218.388L221 163.869L229.498 161.567Z" fill="white" stroke="#2B2B2B" stroke-width="6"/>
<path d="M240 168.388L233.106 169.641C230.728 170.073 229 172.144 229 174.561V195.888" stroke="#2B2B2B" stroke-width="3"/>
<path d="M229 178.642C233.844 178.024 236.211 178.505 240 180.388" stroke="#2B2B2B" stroke-width="3"/>
</svg>
