<svg width="256" height="365" viewBox="0 0 256 365" fill="none" xmlns="http://www.w3.org/2000/svg">
<path d="M35 138.275C35 86.9127 76.6375 45.2751 128 45.2751C179.362 45.2751 221 86.9127 221 138.275V216.275C221 267.638 179.362 309.275 128 309.275C76.6375 309.275 35 267.638 35 216.275V138.275Z" fill="#BCBCBC" stroke="#2B2B2B" stroke-width="6"/>
<path fill-rule="evenodd" clip-rule="evenodd" d="M154.5 314.275C160.519 314.275 166.366 313.536 171.954 312.145L174.955 271.639C176.329 253.086 161.646 237.275 143.042 237.275H117.958C99.3537 237.275 84.6712 253.086 86.0455 271.639L89.0459 312.145C94.6343 313.537 100.481 314.275 106.5 314.275H154.5ZM112.331 244.275C104.282 244.275 97.8906 251.046 98.3542 259.082L99.7931 284.024C100.19 290.901 105.883 296.275 112.772 296.275H148.228C155.117 296.275 160.81 290.901 161.207 284.024L162.646 259.082C163.109 251.046 156.718 244.275 148.669 244.275H112.331Z" fill="#2B2B2B"/>
<path d="M56.5 296.775L200.5 296.275L185.391 311.187C175.259 321.187 162.612 328.579 148.529 330.652C134.274 332.751 121.935 332.843 107.434 330.761C93.0464 328.696 80.2047 320.97 70.0327 310.588L56.5 296.775Z" fill="#2B2B2B"/>
<path d="M34 233.775L89 286.775L90.5 300.775L56.5 296.775L34 233.775Z" fill="#2B2B2B"/>
<path d="M222.5 233.775L167.5 286.775L166 300.775L200.5 296.275L222.5 233.775Z" fill="#2B2B2B"/>
<path d="M35 138.275C35 86.9127 76.6375 45.2751 128 45.2751V45.2751C179.362 45.2751 221 86.9127 221 138.275V216.275C221 267.638 179.362 309.275 128 309.275V309.275C76.6375 309.275 35 267.638 35 216.275V138.275Z" stroke="#2B2B2B" stroke-width="6"/>
<path d="M114 288.275C120.395 281.608 134.605 281.608 141 288.275" stroke="#2B2B2B" stroke-width="3"/>
<path d="M127.5 297.275V288.275" stroke="#2B2B2B" stroke-width="3"/>
<path d="M156 266.275L142.282 258.452C140.976 257.707 139.407 257.594 137.982 258.075C135.691 258.849 132.167 259.905 130 259.907C127.857 259.908 124.916 258.93 122.945 258.166C121.581 257.637 120.054 257.626 118.723 258.235L104 264.974" stroke="#2B2B2B" stroke-width="6"/>
<path d="M150 269.595C138.725 282.294 118.225 279.985 109 269.595M123.643 247.275L129.607 247.849C129.925 247.88 130.246 247.88 130.565 247.849L136.529 247.275" stroke="#2B2B2B" stroke-width="3"/>
<rect x="82.5" y="171.025" width="13" height="22" rx="6.5" fill="#2B2B2B"/>
<rect x="159.5" y="171.025" width="13" height="22" rx="6.5" fill="#2B2B2B"/>
<path d="M70 164.025C79 155.025 99 155.025 108 164.025" stroke="#2B2B2B" stroke-width="3"/>
<path d="M147 164.025C156 155.025 176 155.025 185 164.025" stroke="#2B2B2B" stroke-width="3"/>
<path d="M110 229.951C114.499 231.967 117.985 233.482 122.161 235.157C126.337 236.833 129.999 236.45 134.437 235.157C138.874 233.865 144.067 231.957 147.689 230.115C151.31 228.273 152.914 224.63 151.476 220.936C148.674 213.738 141.506 207.291 140.474 198.275" stroke="#2B2B2B" stroke-width="3"/>
<path d="M26.5022 161.455C13.9893 158.065 2.10423 168.615 3.9864 181.442L5.63053 192.646C7.08744 202.575 13.9305 210.876 23.3985 214.201L35 218.275L35 163.757L26.5022 161.455Z" fill="#BCBCBC" stroke="#2B2B2B" stroke-width="6"/>
<path d="M16 168.275L22.8944 169.529C25.2719 169.961 27 172.032 27 174.448V195.775" stroke="#2B2B2B" stroke-width="3"/>
<path d="M27 178.529C22.1559 177.911 19.7889 178.392 16 180.275" stroke="#2B2B2B" stroke-width="3"/>
<path d="M229.498 161.455C242.011 158.065 253.896 168.615 252.014 181.442L250.369 192.646C248.913 202.575 242.07 210.876 232.601 214.201L221 218.275L221 163.757L229.498 161.455Z" fill="#BCBCBC" stroke="#2B2B2B" stroke-width="6"/>
<path d="M240 168.275L233.106 169.529C230.728 169.961 229 172.032 229 174.448V195.775" stroke="#2B2B2B" stroke-width="3"/>
<path d="M229 178.529C233.844 177.911 236.211 178.392 240 180.275" stroke="#2B2B2B" stroke-width="3"/>
<path d="M26 158.275C36.736 155.813 46.1857 153.995 55 152.83M116 155.714V155.714C123.445 157.273 131.159 157.55 138.63 156.121C138.754 156.098 138.878 156.074 139 156.05M228 158.275C217.264 155.813 207.814 153.995 199 152.83" stroke="#2B2B2B" stroke-width="6"/>
<path d="M54.2056 183.706L50.7173 163.538C49.7455 157.92 53.2237 152.443 58.793 151.22C78.8359 146.818 92.5578 147.281 111.055 153.083C115.781 154.565 118.723 159.207 118.324 164.144L116.932 181.37C115.841 194.873 104.564 205.275 91.0167 205.275H79.8252C67.1755 205.275 56.3615 196.171 54.2056 183.706Z" stroke="#2B2B2B" stroke-width="6"/>
<path d="M199.794 183.706L203.283 163.538C204.255 157.92 200.776 152.443 195.207 151.22C175.164 146.818 161.442 147.281 142.945 153.083C138.219 154.565 135.277 159.207 135.676 164.144L137.068 181.37C138.159 194.873 149.436 205.275 162.983 205.275H174.175C186.825 205.275 197.639 196.171 199.794 183.706Z" stroke="#2B2B2B" stroke-width="6"/>
</svg>
