<svg width="256" height="356" viewBox="0 0 256 356" fill="none" xmlns="http://www.w3.org/2000/svg">
<path d="M39.5654 138.47C37.0811 88.0216 77.3144 45.7584 127.824 45.7584C178.466 45.7584 218.748 88.2331 216.066 138.804L211.975 215.945C210.838 237.381 203.646 258.054 191.234 275.567L189.806 277.582C175.501 297.764 152.299 309.758 127.561 309.758C102.755 309.758 79.4981 297.699 65.2053 277.425L63.8876 275.555C51.5479 258.052 44.437 237.402 43.3837 216.011L39.5654 138.47Z" fill="white" stroke="#2B2B2B" stroke-width="6"/>
<path d="M119 289.258C123.026 282.592 131.974 282.592 136 289.258" stroke="#2B2B2B" stroke-width="3"/>
<path d="M148.5 257.133C139.5 266.133 119.5 266.133 110.5 257.133" stroke="#2B2B2B" stroke-width="6"/>
<rect x="85" y="172.008" width="9" height="22" rx="4.5" fill="#2B2B2B"/>
<rect x="162" y="171.008" width="9" height="22" rx="4.5" fill="#2B2B2B"/>
<path d="M72 168.008C74.3442 165.664 77.4347 163.931 80.8827 162.808M110 168.008C105.086 163.094 96.8919 160.863 89 161.316M68 162.008L74.5 165.508M70 159.008L78 164.008M74 157.008L80.8827 162.808M80.8827 162.808C81.7352 162.53 82.6096 162.29 83.5 162.087M78.8827 155.008L83.5 162.087M83.5 162.087C84.3213 161.899 85.1561 161.744 86 161.62M84 155.008L86 161.62M86 161.62C86.9901 161.475 87.9926 161.373 89 161.316M89 157.008V161.316" stroke="#2B2B2B" stroke-width="3"/>
<path d="M183 168.008C180.656 165.664 177.565 163.931 174.117 162.808M145 168.008C149.914 163.094 158.108 160.863 166 161.316M187 162.008L180.5 165.508M185 159.008L177 164.008M181 157.008L174.117 162.808M174.117 162.808C173.265 162.53 172.39 162.29 171.5 162.087M176.117 155.008L171.5 162.087M171.5 162.087C170.679 161.899 169.844 161.744 169 161.62M171 155.008L169 161.62M169 161.62C168.01 161.475 167.007 161.373 166 161.316M166 157.008V161.316" stroke="#2B2B2B" stroke-width="3"/>
<path d="M140 191.758V227.219C140 231.08 138.293 235.164 134.464 235.652C128.617 236.396 121.63 233.152 117 228.705" stroke="#2B2B2B" stroke-width="3"/>
<path d="M26 158.758C58.7925 151.237 79.5843 149.734 106.924 154.457C120.411 156.786 134.185 156.989 147.695 154.8C176.076 150.201 196.56 151.454 228 158.758" stroke="#2B2B2B" stroke-width="6"/>
<path d="M45 153.758L53.6346 183.411C56.2874 192.522 63.6929 199.464 72.9557 201.523L87.3579 204.724C103.596 208.334 119 195.978 119 179.344V156.201" stroke="#2B2B2B" stroke-width="6"/>
<path d="M210 153.758L201.386 184.162C198.732 193.53 191.065 200.63 181.521 202.559L167.15 205.463C151.047 208.718 136 196.407 136 179.978V156.201" stroke="#2B2B2B" stroke-width="6"/>
<path fill-rule="evenodd" clip-rule="evenodd" d="M22 144.458C24.8102 88.4237 71.1328 43.8551 127.865 43.8551C184.537 43.8551 230.821 88.3291 233.721 144.28C233.541 144.625 233.207 144.881 232.801 144.949C209.99 148.826 189.92 151.525 170.999 153.116C168.312 153.342 165.948 151.371 165.658 148.689L158.865 85.855L158.865 149.285C158.865 151.93 156.804 154.12 154.163 154.254C112.949 156.338 75.1011 152.953 22.6485 144.889C22.3724 144.846 22.1386 144.683 22 144.458Z" fill="#2B2B2B"/>
<path d="M22 144.855H38L46 246.855H22V144.855Z" fill="#2B2B2B"/>
<path d="M217 144.855H234V246.855H209L217 144.855Z" fill="#2B2B2B"/>
</svg>
