<svg width="262" height="365" viewBox="0 0 262 365" fill="none" xmlns="http://www.w3.org/2000/svg">
<path d="M38 138.904C38 87.5418 79.6375 45.9043 131 45.9043C182.362 45.9043 224 87.5418 224 138.904V216.904C224 268.267 182.362 309.904 131 309.904C79.6375 309.904 38 268.267 38 216.904V138.904Z" fill="white" stroke="#2B2B2B" stroke-width="6"/>
<path fill-rule="evenodd" clip-rule="evenodd" d="M227 212.904V207.907C225.949 207.916 224.906 207.954 223.87 208.02C223.881 208.48 223.886 208.941 223.886 209.404C223.886 235.638 205.997 256.904 183.93 256.904C175.898 256.904 168.42 254.087 162.156 249.239C153.327 243.355 142.586 239.904 131 239.904C119.414 239.904 108.673 243.355 99.8438 249.239C93.5801 254.087 86.1019 256.904 78.0703 256.904C56.0028 256.904 38.1135 235.638 38.1135 209.404C38.1135 208.922 38.1196 208.442 38.1315 207.964C37.2658 207.924 36.3948 207.904 35.5189 207.904C35.3458 207.904 35.1728 207.905 35 207.907V212.904C35 265.924 77.9807 308.904 131 308.904C184.019 308.904 227 265.924 227 212.904ZM166.805 264.324C166.805 272.278 158.893 279.174 147.328 282.573C143.645 278.48 137.703 275.824 131 275.824C124.297 275.824 118.355 278.48 114.672 282.573C103.107 279.174 95.1946 272.278 95.1946 264.324C95.1946 253.002 111.225 243.824 131 243.824C150.775 243.824 166.805 253.002 166.805 264.324Z" fill="#2B2B2B"/>
<path d="M38 138.904C38 87.5418 79.6375 45.9043 131 45.9043V45.9043C182.362 45.9043 224 87.5418 224 138.904V216.904C224 268.267 182.362 309.904 131 309.904V309.904C79.6375 309.904 38 268.267 38 216.904V138.904Z" stroke="#2B2B2B" stroke-width="6"/>
<path d="M151.5 257.279C142.5 266.279 122.5 266.279 113.5 257.279" stroke="#2B2B2B" stroke-width="6"/>
<rect x="85" y="175.654" width="13" height="14" rx="6.5" fill="#2B2B2B"/>
<rect x="162" y="175.654" width="13" height="14" rx="6.5" fill="#2B2B2B"/>
<path d="M73 164.654C75.3442 162.31 78.4347 160.576 81.8827 159.453M111 164.654C106.086 159.74 97.8919 157.509 90 157.961M69 158.654L75.5 162.154M71 155.654L79 160.654M75 153.654L81.8827 159.453M81.8827 159.453C82.7352 159.176 83.6096 158.935 84.5 158.732M79.8827 151.654L84.5 158.732M84.5 158.732C85.3213 158.545 86.1561 158.39 87 158.266M85 151.654L87 158.266M87 158.266C87.9901 158.121 88.9926 158.019 90 157.961M90 153.654V157.961" stroke="#2B2B2B" stroke-width="3"/>
<path d="M186 167.654C183.656 165.31 180.565 163.576 177.117 162.453M148 167.654C152.914 162.74 161.108 160.509 169 160.961M190 161.654L183.5 165.154M188 158.654L180 163.654M184 156.654L177.117 162.453M177.117 162.453C176.265 162.176 175.39 161.935 174.5 161.732M179.117 154.654L174.5 161.732M174.5 161.732C173.679 161.545 172.844 161.39 172 161.266M174 154.654L172 161.266M172 161.266C171.01 161.121 170.007 161.019 169 160.961M169 156.654V160.961" stroke="#2B2B2B" stroke-width="3"/>
<path d="M143 183.904V227.185C143 230.686 141.679 234.296 138.446 235.64C132.135 238.265 123.924 236.802 119 231.254" stroke="#2B2B2B" stroke-width="3"/>
<path fill-rule="evenodd" clip-rule="evenodd" d="M38 144.902V188.513C27.4882 176.144 21 159.154 21 140.404C21 110.21 37.8267 84.5785 61.187 75.4604C63.1432 73.2395 65.2036 71.1128 67.3607 69.0877C82.2747 49.5546 113.453 36.1139 149.5 36.1139C200.034 36.1139 241 62.5291 241 95.1139C241 108.001 234.592 119.923 223.719 129.627C223.905 132.029 224 134.455 224 136.904V144.883C223.502 144.897 223.002 144.904 222.5 144.904C221.992 144.904 221.486 144.897 220.982 144.883C220.994 144.392 221 143.899 221 143.404C221 117.171 203.763 95.9044 182.5 95.9044C175.453 95.9044 168.847 98.2405 163.166 102.319C162.368 102.489 161.61 102.803 160.939 103.277C152.354 109.339 141.847 112.904 130.5 112.904C119.337 112.904 108.987 109.453 100.48 103.57C94.4444 98.7214 87.2388 95.9044 79.5 95.9044C58.237 95.9044 41 117.171 41 143.404C41 143.867 41.0054 144.329 41.016 144.788C40.0181 144.854 39.0125 144.893 38 144.902Z" fill="#2B2B2B"/>
<path d="M87.4531 88.2339C84.3331 80.387 75.2661 74.1473 64.636 76.8594" stroke="#BCBCBC" stroke-width="3"/>
<path fill-rule="evenodd" clip-rule="evenodd" d="M241.784 159.491C241.502 161.002 241.642 162.61 242.278 164.134C243.395 166.808 245.767 168.577 248.425 169.041C248.235 170.434 248.403 171.894 248.984 173.285C250.63 177.228 255.004 179.201 259 177.929V179.379C259 191.973 250.293 202.894 238.016 205.701L224 208.904L224 162.904L236.989 159.935C238.608 159.565 240.217 159.425 241.784 159.491Z" fill="#BCBCBC"/>
<path d="M241.784 159.491L244.733 160.041L245.368 156.638L241.909 156.493L241.784 159.491ZM242.278 164.134L245.047 162.978V162.978L242.278 164.134ZM248.425 169.041L251.398 169.445L251.787 166.582L248.941 166.085L248.425 169.041ZM248.984 173.285L246.216 174.441V174.441L248.984 173.285ZM259 177.929H262V173.826L258.09 175.071L259 177.929ZM238.016 205.701L238.685 208.625L238.016 205.701ZM224 208.904H221L221 212.667L224.668 211.829L224 208.904ZM224 162.904L223.332 159.98L221 160.513V162.904L224 162.904ZM236.989 159.935L237.658 162.86L236.989 159.935ZM238.835 158.94C238.449 161.008 238.642 163.21 239.51 165.29L245.047 162.978C244.642 162.009 244.555 160.996 244.733 160.041L238.835 158.94ZM239.51 165.29C241.037 168.949 244.285 171.364 247.909 171.996L248.941 166.085C247.249 165.79 245.752 164.668 245.047 162.978L239.51 165.29ZM245.452 168.636C245.193 170.544 245.423 172.544 246.216 174.441L251.752 172.129C251.383 171.244 251.278 170.324 251.398 169.445L245.452 168.636ZM246.216 174.441C248.466 179.831 254.445 182.527 259.91 180.788L258.09 175.071C255.564 175.875 252.794 174.624 251.752 172.129L246.216 174.441ZM256 177.929V179.379H262V177.929H256ZM256 179.379C256 190.574 248.261 200.282 237.348 202.776L238.685 208.625C252.326 205.507 262 193.372 262 179.379H256ZM237.348 202.776L223.332 205.98L224.668 211.829L238.685 208.625L237.348 202.776ZM227 208.904L227 162.904L221 162.904L221 208.904H227ZM224.668 165.829L237.658 162.86L236.321 157.011L223.332 159.98L224.668 165.829ZM237.658 162.86C239.015 162.55 240.356 162.434 241.658 162.488L241.909 156.493C240.077 156.417 238.201 156.581 236.321 157.011L237.658 162.86Z" fill="#2B2B2B"/>
<path d="M240 168.904L235.787 169.957C233.561 170.514 232 172.514 232 174.808V196.404" stroke="#2B2B2B" stroke-width="3"/>
<path d="M232 179.159C236.844 178.541 239.211 179.021 243 180.904" stroke="#2B2B2B" stroke-width="3"/>
<path d="M25.0108 159.935C13.7414 157.359 3 165.923 3 177.483L3 179.379C3 191.973 11.7066 202.894 23.9837 205.701L38 208.904L38 162.904L25.0108 159.935Z" fill="#BCBCBC" stroke="#2B2B2B" stroke-width="6"/>
<path d="M19 168.904L25.8944 170.158C28.2719 170.59 30 172.661 30 175.077V196.404" stroke="#2B2B2B" stroke-width="3"/>
<path d="M30 179.159C25.1559 178.541 22.7889 179.021 19 180.904" stroke="#2B2B2B" stroke-width="3"/>
</svg>
