<svg width="380" height="380" viewBox="0 0 380 380" fill="none" xmlns="http://www.w3.org/2000/svg">
<circle cx="190" cy="190" r="190" fill="#8ECAE6"/>
<mask id="mask0_260_279" style="mask-type:alpha" maskUnits="userSpaceOnUse" x="0" y="0" width="380" height="380">
<circle cx="190" cy="190" r="190" fill="#FFEDEF"/>
</mask>
<g mask="url(#mask0_260_279)">
<g clip-path="url(#clip0_260_279)">
<path d="M244 362.5C229.6 342.5 218.333 303.834 217 284.5L148.5 255L120 362.5H244Z" fill="#F9C9B6" stroke="#111111" stroke-width="4"/>
<mask id="mask1_260_279" style="mask-type:alpha" maskUnits="userSpaceOnUse" x="120" y="255" width="124" height="118">
<path d="M244 372.5C229.6 352.5 218.333 303.834 217 284.5L148.5 255L120 372.5H244Z" fill="#AC6651"/>
</mask>
<g mask="url(#mask1_260_279)">
<g style="mix-blend-mode:multiply">
<ellipse cx="214" cy="253" rx="59" ry="54" fill="#111111"/>
</g>
</g>
<mask id="path-6-inside-1_260_279" fill="white">
<path fill-rule="evenodd" clip-rule="evenodd" d="M273.887 193.917C273.86 193.801 273.832 193.685 273.804 193.569C273.777 193.454 273.749 193.338 273.72 193.222L257.324 124.786C257.307 124.718 257.291 124.65 257.275 124.582C257.259 124.514 257.242 124.446 257.226 124.379L257.153 124.075L257.152 124.076C246.934 82.6308 205.157 57.1472 163.583 67.1081C122.009 77.0689 96.3164 118.717 105.989 160.293L105.987 160.293L122.979 231.211L122.993 231.208C133.595 272.112 175.063 297.149 216.33 287.261C257.598 277.374 283.217 236.264 274.132 194.996L274.145 194.993L273.887 193.917Z"/>
</mask>
<path fill-rule="evenodd" clip-rule="evenodd" d="M273.887 193.917C273.86 193.801 273.832 193.685 273.804 193.569C273.777 193.454 273.749 193.338 273.72 193.222L257.324 124.786C257.307 124.718 257.291 124.65 257.275 124.582C257.259 124.514 257.242 124.446 257.226 124.379L257.153 124.075L257.152 124.076C246.934 82.6308 205.157 57.1472 163.583 67.1081C122.009 77.0689 96.3164 118.717 105.989 160.293L105.987 160.293L122.979 231.211L122.993 231.208C133.595 272.112 175.063 297.149 216.33 287.261C257.598 277.374 283.217 236.264 274.132 194.996L274.145 194.993L273.887 193.917Z" fill="#F9C9B6"/>
<path d="M273.887 193.917L269.993 194.831L269.995 194.84L269.997 194.849L273.887 193.917ZM273.72 193.222L269.831 194.154L269.833 194.163L269.835 194.172L273.72 193.222ZM257.324 124.786L253.431 125.708L253.434 125.718L257.324 124.786ZM257.226 124.379L253.336 125.311L253.339 125.321L257.226 124.379ZM257.153 124.075L261.043 123.143L260.112 119.255L256.223 120.185L257.153 124.075ZM257.152 124.076L253.268 125.033L254.219 128.89L258.082 127.966L257.152 124.076ZM163.583 67.1081L162.651 63.2182L162.651 63.2182L163.583 67.1081ZM105.989 160.293L106.923 164.182L110.785 163.255L109.885 159.386L105.989 160.293ZM105.987 160.293L105.053 156.404L101.166 157.337L102.097 161.225L105.987 160.293ZM122.979 231.211L119.089 232.143L120.021 236.035L123.912 235.101L122.979 231.211ZM122.993 231.208L126.865 230.204L125.879 226.401L122.059 227.318L122.993 231.208ZM216.33 287.261L215.398 283.371L215.398 283.371L216.33 287.261ZM274.132 194.996L273.201 191.106L269.382 192.021L270.226 195.856L274.132 194.996ZM274.145 194.993L275.076 198.883L278.967 197.951L278.035 194.061L274.145 194.993ZM277.781 193.002C277.752 192.881 277.723 192.759 277.694 192.637L269.915 194.502C269.941 194.611 269.967 194.721 269.993 194.831L277.781 193.002ZM277.694 192.637C277.665 192.516 277.636 192.395 277.606 192.273L269.835 194.172C269.861 194.281 269.888 194.391 269.915 194.502L277.694 192.637ZM253.434 125.718L269.831 194.154L277.61 192.29L261.213 123.854L253.434 125.718ZM261.216 123.863C261.199 123.793 261.182 123.722 261.165 123.65L253.385 125.514C253.401 125.578 253.416 125.643 253.431 125.708L261.216 123.863ZM261.165 123.65C261.148 123.579 261.131 123.508 261.113 123.436L253.339 125.321C253.354 125.385 253.37 125.449 253.385 125.514L261.165 123.65ZM253.263 125.007L253.336 125.311L261.116 123.447L261.043 123.143L253.263 125.007ZM258.082 127.966L258.084 127.966L256.223 120.185L256.222 120.185L258.082 127.966ZM261.036 123.118C250.292 79.5398 206.365 52.7447 162.651 63.2182L164.515 70.998C203.949 61.5498 243.576 85.7219 253.268 125.033L261.036 123.118ZM162.651 63.2182C118.937 73.6917 91.9225 117.484 102.093 161.199L109.885 159.386C100.71 119.951 125.081 80.4461 164.515 70.998L162.651 63.2182ZM106.921 164.183L106.923 164.182L105.055 156.403L105.053 156.404L106.921 164.183ZM126.869 230.279L109.877 159.361L102.097 161.225L119.089 232.143L126.869 230.279ZM122.059 227.318L122.045 227.322L123.912 235.101L123.926 235.097L122.059 227.318ZM119.121 232.211C130.269 275.223 173.87 301.548 217.262 291.151L215.398 283.371C176.255 292.75 136.921 269.002 126.865 230.204L119.121 232.211ZM217.262 291.151C260.654 280.755 287.592 237.53 278.039 194.136L270.226 195.856C278.843 234.999 254.542 273.993 215.398 283.371L217.262 291.151ZM273.213 191.103L273.201 191.106L275.064 198.886L275.076 198.883L273.213 191.103ZM269.997 194.849L270.255 195.925L278.035 194.061L277.777 192.985L269.997 194.849Z" fill="#111111" mask="url(#path-6-inside-1_260_279)"/>
</g>
<path d="M155 255C155 255.552 154.552 256 154 256C153.448 256 153 255.552 153 255C153 254.448 153.448 254 154 254C154.552 254 155 254.448 155 255Z" fill="#111111"/>
<path d="M207 262C207 262.552 206.552 263 206 263C205.448 263 205 262.552 205 262C205 261.448 205.448 261 206 261C206.552 261 207 261.448 207 262Z" fill="#111111"/>
<path d="M203 269C203 269.552 202.552 270 202 270C201.448 270 201 269.552 201 269C201 268.448 201.448 268 202 268C202.552 268 203 268.448 203 269Z" fill="#111111"/>
<path d="M223 267C223 267.552 222.552 268 222 268C221.448 268 221 267.552 221 267C221 266.448 221.448 266 222 266C222.552 266 223 266.448 223 267Z" fill="#111111"/>
<path d="M224 257C224 257.552 223.552 258 223 258C222.448 258 222 257.552 222 257C222 256.448 222.448 256 223 256C223.552 256 224 256.448 224 257Z" fill="#111111"/>
<path d="M244 262C244 262.552 243.552 263 243 263C242.448 263 242 262.552 242 262C242 261.448 242.448 261 243 261C243.552 261 244 261.448 244 262Z" fill="#111111"/>
<path d="M254 248C254 248.552 253.552 249 253 249C252.448 249 252 248.552 252 248C252 247.448 252.448 247 253 247C253.552 247 254 247.448 254 248Z" fill="#111111"/>
<path d="M145 234C145 234.552 144.552 235 144 235C143.448 235 143 234.552 143 234C143 233.448 143.448 233 144 233C144.552 233 145 233.448 145 234Z" fill="#111111"/>
<path d="M178 250C178 250.552 177.552 251 177 251C176.448 251 176 250.552 176 250C176 249.448 176.448 249 177 249C177.552 249 178 249.448 178 250Z" fill="#111111"/>
<path d="M175 270C175 270.552 174.552 271 174 271C173.448 271 173 270.552 173 270C173 269.448 173.448 269 174 269C174.552 269 175 269.448 175 270Z" fill="#111111"/>
<path d="M193 274C193 274.552 192.552 275 192 275C191.448 275 191 274.552 191 274C191 273.448 191.448 273 192 273C192.552 273 193 273.448 193 274Z" fill="#111111"/>
<path d="M227 248C227 248.552 226.552 249 226 249C225.448 249 225 248.552 225 248C225 247.448 225.448 247 226 247C226.552 247 227 247.448 227 248Z" fill="#111111"/>
<path d="M241 252C241 252.552 240.552 253 240 253C239.448 253 239 252.552 239 252C239 251.448 239.448 251 240 251C240.552 251 241 251.448 241 252Z" fill="#111111"/>
<path d="M233 269C233 269.552 232.552 270 232 270C231.448 270 231 269.552 231 269C231 268.448 231.448 268 232 268C232.552 268 233 268.448 233 269Z" fill="#111111"/>
<path d="M247 238C247 238.552 246.552 239 246 239C245.448 239 245 238.552 245 238C245 237.448 245.448 237 246 237C246.552 237 247 237.448 247 238Z" fill="#111111"/>
<path d="M154 240C154 240.552 153.552 241 153 241C152.448 241 152 240.552 152 240C152 239.448 152.448 239 153 239C153.552 239 154 239.448 154 240Z" fill="#111111"/>
<path d="M178 240C178 240.552 177.552 241 177 241C176.448 241 176 240.552 176 240C176 239.448 176.448 239 177 239C177.552 239 178 239.448 178 240Z" fill="#111111"/>
<path d="M178 222C178 222.552 177.552 223 177 223C176.448 223 176 222.552 176 222C176 221.448 176.448 221 177 221C177.552 221 178 221.448 178 222Z" fill="#111111"/>
<path d="M182 276C182 276.552 181.552 277 181 277C180.448 277 180 276.552 180 276C180 275.448 180.448 275 181 275C181.552 275 182 275.448 182 276Z" fill="#111111"/>
<path d="M209 276C209 276.552 208.552 277 208 277C207.448 277 207 276.552 207 276C207 275.448 207.448 275 208 275C208.552 275 209 275.448 209 276Z" fill="#111111"/>
<path d="M220 276C220 276.552 219.552 277 219 277C218.448 277 218 276.552 218 276C218 275.448 218.448 275 219 275C219.552 275 220 275.448 220 276Z" fill="#111111"/>
<path d="M237 240C237 240.552 236.552 241 236 241C235.448 241 235 240.552 235 240C235 239.448 235.448 239 236 239C236.552 239 237 239.448 237 240Z" fill="#111111"/>
<path d="M237 222C237 222.552 236.552 223 236 223C235.448 223 235 222.552 235 222C235 221.448 235.448 221 236 221C236.552 221 237 221.448 237 222Z" fill="#111111"/>
<path d="M257 235C257 235.552 256.552 236 256 236C255.448 236 255 235.552 255 235C255 234.448 255.448 234 256 234C256.552 234 257 234.448 257 235Z" fill="#111111"/>
<path d="M157 227C157 227.552 156.552 228 156 228C155.448 228 155 227.552 155 227C155 226.448 155.448 226 156 226C156.552 226 157 226.448 157 227Z" fill="#111111"/>
<path d="M167 262C167 262.552 166.552 263 166 263C165.448 263 165 262.552 165 262C165 261.448 165.448 261 166 261C166.552 261 167 261.448 167 262Z" fill="#111111"/>
<path d="M163 269C163 269.552 162.552 270 162 270C161.448 270 161 269.552 161 269C161 268.448 161.448 268 162 268C162.552 268 163 268.448 163 269Z" fill="#111111"/>
<path d="M203 249C203 249.552 202.552 250 202 250C201.448 250 201 249.552 201 249C201 248.448 201.448 248 202 248C202.552 248 203 248.448 203 249Z" fill="#111111"/>
<path d="M215 251C215 251.552 214.552 252 214 252C213.448 252 213 251.552 213 251C213 250.448 213.448 250 214 250C214.552 250 215 250.448 215 251Z" fill="#111111"/>
<path d="M201 281C201 281.552 200.552 282 200 282C199.448 282 199 281.552 199 281C199 280.448 199.448 280 200 280C200.552 280 201 280.448 201 281Z" fill="#111111"/>
<path d="M224 230C224 230.552 223.552 231 223 231C222.448 231 222 230.552 222 230C222 229.448 222.448 229 223 229C223.552 229 224 229.448 224 230Z" fill="#111111"/>
<path d="M224 212C224 212.552 223.552 213 223 213C222.448 213 222 212.552 222 212C222 211.448 222.448 211 223 211C223.552 211 224 211.448 224 212Z" fill="#111111"/>
<path d="M248 227C248 227.552 247.552 228 247 228C246.448 228 246 227.552 246 227C246 226.448 246.448 226 247 226C247.552 226 248 226.448 248 227Z" fill="#111111"/>
<path d="M255 217C255 217.552 254.552 218 254 218C253.448 218 253 217.552 253 217C253 216.448 253.448 216 254 216C254.552 216 255 216.448 255 217Z" fill="#111111"/>
<path d="M166 236C166 236.552 165.552 237 165 237C164.448 237 164 236.552 164 236C164 235.448 164.448 235 165 235C165.552 235 166 235.448 166 236Z" fill="#111111"/>
<path d="M166 247C166 247.552 165.552 248 165 248C164.448 248 164 247.552 164 247C164 246.448 164.448 246 165 246C165.552 246 166 246.448 166 247Z" fill="#111111"/>
<path d="M187 232C187 232.552 186.552 233 186 233C185.448 233 185 232.552 185 232C185 231.448 185.448 231 186 231C186.552 231 187 231.448 187 232Z" fill="#111111"/>
<path d="M187 214C187 214.552 186.552 215 186 215C185.448 215 185 214.552 185 214C185 213.448 185.448 213 186 213C186.552 213 187 213.448 187 214Z" fill="#111111"/>
<path d="M199 228C199 228.552 198.552 229 198 229C197.448 229 197 228.552 197 228C197 227.448 197.448 227 198 227C198.552 227 199 227.448 199 228Z" fill="#111111"/>
<path d="M211 222C211 222.552 210.552 223 210 223C209.448 223 209 222.552 209 222C209 221.448 209.448 221 210 221C210.552 221 211 221.448 211 222Z" fill="#111111"/>
<path d="M224 222C224 222.552 223.552 223 223 223C222.448 223 222 222.552 222 222C222 221.448 222.448 221 223 221C223.552 221 224 221.448 224 222Z" fill="#111111"/>
<path d="M237 222C237 222.552 236.552 223 236 223C235.448 223 235 222.552 235 222C235 221.448 235.448 221 236 221C236.552 221 237 221.448 237 222Z" fill="#111111"/>
<path d="M263 222C263 222.552 262.552 223 262 223C261.448 223 261 222.552 261 222C261 221.448 261.448 221 262 221C262.552 221 263 221.448 263 222Z" fill="#111111"/>
<path d="M185 262C185 262.552 184.552 263 184 263C183.448 263 183 262.552 183 262C183 261.448 183.448 261 184 261C184.552 261 185 261.448 185 262Z" fill="#111111"/>
<path d="M196 256C196 256.552 195.552 257 195 257C194.448 257 194 256.552 194 256C194 255.448 194.448 255 195 255C195.552 255 196 255.448 196 256Z" fill="#111111"/>
<path d="M192 248C192 248.552 191.552 249 191 249C190.448 249 190 248.552 190 248C190 247.448 190.448 247 191 247C191.552 247 192 247.448 192 248Z" fill="#111111"/>
<path d="M216 239C216 239.552 215.552 240 215 240C214.448 240 214 239.552 214 239C214 238.448 214.448 238 215 238C215.552 238 216 238.448 216 239Z" fill="#111111"/>
<path d="M167 221C167 221.552 166.552 222 166 222C165.448 222 165 221.552 165 221C165 220.448 165.448 220 166 220C166.552 220 167 220.448 167 221Z" fill="#111111"/>
<path d="M204 237C204 237.552 203.552 238 203 238C202.448 238 202 237.552 202 237C202 236.448 202.448 236 203 236C203.552 236 204 236.448 204 237Z" fill="#111111"/>
<path d="M204 219C204 219.552 203.552 220 203 220C202.448 220 202 219.552 202 219C202 218.448 202.448 218 203 218C203.552 218 204 218.448 204 219Z" fill="#111111"/>
<path d="M239 233C239 233.552 238.552 234 238 234C237.448 234 237 233.552 237 233C237 232.448 237.448 232 238 232C238.552 232 239 232.448 239 233Z" fill="#111111"/>
<path d="M239 215C239 215.552 238.552 216 238 216C237.448 216 237 215.552 237 215C237 214.448 237.448 214 238 214C238.552 214 239 214.448 239 215Z" fill="#111111"/>
<path d="M246 217C246 217.552 245.552 218 245 218C244.448 218 244 217.552 244 217C244 216.448 244.448 216 245 216C245.552 216 246 216.448 246 217Z" fill="#111111"/>
<path d="M261 208C261 208.552 260.552 209 260 209C259.448 209 259 208.552 259 208C259 207.448 259.448 207 260 207C260.552 207 261 207.448 261 208Z" fill="#111111"/>
<path d="M155 255C155 255.552 154.552 256 154 256C153.448 256 153 255.552 153 255C153 254.448 153.448 254 154 254C154.552 254 155 254.448 155 255Z" stroke="#111111"/>
<path d="M207 262C207 262.552 206.552 263 206 263C205.448 263 205 262.552 205 262C205 261.448 205.448 261 206 261C206.552 261 207 261.448 207 262Z" stroke="#111111"/>
<path d="M203 269C203 269.552 202.552 270 202 270C201.448 270 201 269.552 201 269C201 268.448 201.448 268 202 268C202.552 268 203 268.448 203 269Z" stroke="#111111"/>
<path d="M223 267C223 267.552 222.552 268 222 268C221.448 268 221 267.552 221 267C221 266.448 221.448 266 222 266C222.552 266 223 266.448 223 267Z" stroke="#111111"/>
<path d="M224 257C224 257.552 223.552 258 223 258C222.448 258 222 257.552 222 257C222 256.448 222.448 256 223 256C223.552 256 224 256.448 224 257Z" stroke="#111111"/>
<path d="M244 262C244 262.552 243.552 263 243 263C242.448 263 242 262.552 242 262C242 261.448 242.448 261 243 261C243.552 261 244 261.448 244 262Z" stroke="#111111"/>
<path d="M254 248C254 248.552 253.552 249 253 249C252.448 249 252 248.552 252 248C252 247.448 252.448 247 253 247C253.552 247 254 247.448 254 248Z" stroke="#111111"/>
<path d="M145 234C145 234.552 144.552 235 144 235C143.448 235 143 234.552 143 234C143 233.448 143.448 233 144 233C144.552 233 145 233.448 145 234Z" stroke="#111111"/>
<path d="M178 250C178 250.552 177.552 251 177 251C176.448 251 176 250.552 176 250C176 249.448 176.448 249 177 249C177.552 249 178 249.448 178 250Z" stroke="#111111"/>
<path d="M175 270C175 270.552 174.552 271 174 271C173.448 271 173 270.552 173 270C173 269.448 173.448 269 174 269C174.552 269 175 269.448 175 270Z" stroke="#111111"/>
<path d="M193 274C193 274.552 192.552 275 192 275C191.448 275 191 274.552 191 274C191 273.448 191.448 273 192 273C192.552 273 193 273.448 193 274Z" stroke="#111111"/>
<path d="M227 248C227 248.552 226.552 249 226 249C225.448 249 225 248.552 225 248C225 247.448 225.448 247 226 247C226.552 247 227 247.448 227 248Z" stroke="#111111"/>
<path d="M241 252C241 252.552 240.552 253 240 253C239.448 253 239 252.552 239 252C239 251.448 239.448 251 240 251C240.552 251 241 251.448 241 252Z" stroke="#111111"/>
<path d="M233 269C233 269.552 232.552 270 232 270C231.448 270 231 269.552 231 269C231 268.448 231.448 268 232 268C232.552 268 233 268.448 233 269Z" stroke="#111111"/>
<path d="M247 238C247 238.552 246.552 239 246 239C245.448 239 245 238.552 245 238C245 237.448 245.448 237 246 237C246.552 237 247 237.448 247 238Z" stroke="#111111"/>
<path d="M154 240C154 240.552 153.552 241 153 241C152.448 241 152 240.552 152 240C152 239.448 152.448 239 153 239C153.552 239 154 239.448 154 240Z" stroke="#111111"/>
<path d="M178 240C178 240.552 177.552 241 177 241C176.448 241 176 240.552 176 240C176 239.448 176.448 239 177 239C177.552 239 178 239.448 178 240Z" stroke="#111111"/>
<path d="M178 222C178 222.552 177.552 223 177 223C176.448 223 176 222.552 176 222C176 221.448 176.448 221 177 221C177.552 221 178 221.448 178 222Z" stroke="#111111"/>
<path d="M182 276C182 276.552 181.552 277 181 277C180.448 277 180 276.552 180 276C180 275.448 180.448 275 181 275C181.552 275 182 275.448 182 276Z" stroke="#111111"/>
<path d="M209 276C209 276.552 208.552 277 208 277C207.448 277 207 276.552 207 276C207 275.448 207.448 275 208 275C208.552 275 209 275.448 209 276Z" stroke="#111111"/>
<path d="M220 276C220 276.552 219.552 277 219 277C218.448 277 218 276.552 218 276C218 275.448 218.448 275 219 275C219.552 275 220 275.448 220 276Z" stroke="#111111"/>
<path d="M237 240C237 240.552 236.552 241 236 241C235.448 241 235 240.552 235 240C235 239.448 235.448 239 236 239C236.552 239 237 239.448 237 240Z" stroke="#111111"/>
<path d="M237 222C237 222.552 236.552 223 236 223C235.448 223 235 222.552 235 222C235 221.448 235.448 221 236 221C236.552 221 237 221.448 237 222Z" stroke="#111111"/>
<path d="M257 235C257 235.552 256.552 236 256 236C255.448 236 255 235.552 255 235C255 234.448 255.448 234 256 234C256.552 234 257 234.448 257 235Z" stroke="#111111"/>
<path d="M157 227C157 227.552 156.552 228 156 228C155.448 228 155 227.552 155 227C155 226.448 155.448 226 156 226C156.552 226 157 226.448 157 227Z" stroke="#111111"/>
<path d="M167 262C167 262.552 166.552 263 166 263C165.448 263 165 262.552 165 262C165 261.448 165.448 261 166 261C166.552 261 167 261.448 167 262Z" stroke="#111111"/>
<path d="M163 269C163 269.552 162.552 270 162 270C161.448 270 161 269.552 161 269C161 268.448 161.448 268 162 268C162.552 268 163 268.448 163 269Z" stroke="#111111"/>
<path d="M203 249C203 249.552 202.552 250 202 250C201.448 250 201 249.552 201 249C201 248.448 201.448 248 202 248C202.552 248 203 248.448 203 249Z" stroke="#111111"/>
<path d="M215 251C215 251.552 214.552 252 214 252C213.448 252 213 251.552 213 251C213 250.448 213.448 250 214 250C214.552 250 215 250.448 215 251Z" stroke="#111111"/>
<path d="M201 281C201 281.552 200.552 282 200 282C199.448 282 199 281.552 199 281C199 280.448 199.448 280 200 280C200.552 280 201 280.448 201 281Z" stroke="#111111"/>
<path d="M224 230C224 230.552 223.552 231 223 231C222.448 231 222 230.552 222 230C222 229.448 222.448 229 223 229C223.552 229 224 229.448 224 230Z" stroke="#111111"/>
<path d="M224 212C224 212.552 223.552 213 223 213C222.448 213 222 212.552 222 212C222 211.448 222.448 211 223 211C223.552 211 224 211.448 224 212Z" stroke="#111111"/>
<path d="M248 227C248 227.552 247.552 228 247 228C246.448 228 246 227.552 246 227C246 226.448 246.448 226 247 226C247.552 226 248 226.448 248 227Z" stroke="#111111"/>
<path d="M255 217C255 217.552 254.552 218 254 218C253.448 218 253 217.552 253 217C253 216.448 253.448 216 254 216C254.552 216 255 216.448 255 217Z" stroke="#111111"/>
<path d="M166 236C166 236.552 165.552 237 165 237C164.448 237 164 236.552 164 236C164 235.448 164.448 235 165 235C165.552 235 166 235.448 166 236Z" stroke="#111111"/>
<path d="M166 247C166 247.552 165.552 248 165 248C164.448 248 164 247.552 164 247C164 246.448 164.448 246 165 246C165.552 246 166 246.448 166 247Z" stroke="#111111"/>
<path d="M187 232C187 232.552 186.552 233 186 233C185.448 233 185 232.552 185 232C185 231.448 185.448 231 186 231C186.552 231 187 231.448 187 232Z" stroke="#111111"/>
<path d="M187 214C187 214.552 186.552 215 186 215C185.448 215 185 214.552 185 214C185 213.448 185.448 213 186 213C186.552 213 187 213.448 187 214Z" stroke="#111111"/>
<path d="M199 228C199 228.552 198.552 229 198 229C197.448 229 197 228.552 197 228C197 227.448 197.448 227 198 227C198.552 227 199 227.448 199 228Z" stroke="#111111"/>
<path d="M211 222C211 222.552 210.552 223 210 223C209.448 223 209 222.552 209 222C209 221.448 209.448 221 210 221C210.552 221 211 221.448 211 222Z" stroke="#111111"/>
<path d="M224 222C224 222.552 223.552 223 223 223C222.448 223 222 222.552 222 222C222 221.448 222.448 221 223 221C223.552 221 224 221.448 224 222Z" stroke="#111111"/>
<path d="M237 222C237 222.552 236.552 223 236 223C235.448 223 235 222.552 235 222C235 221.448 235.448 221 236 221C236.552 221 237 221.448 237 222Z" stroke="#111111"/>
<path d="M263 222C263 222.552 262.552 223 262 223C261.448 223 261 222.552 261 222C261 221.448 261.448 221 262 221C262.552 221 263 221.448 263 222Z" stroke="#111111"/>
<path d="M185 262C185 262.552 184.552 263 184 263C183.448 263 183 262.552 183 262C183 261.448 183.448 261 184 261C184.552 261 185 261.448 185 262Z" stroke="#111111"/>
<path d="M196 256C196 256.552 195.552 257 195 257C194.448 257 194 256.552 194 256C194 255.448 194.448 255 195 255C195.552 255 196 255.448 196 256Z" stroke="#111111"/>
<path d="M192 248C192 248.552 191.552 249 191 249C190.448 249 190 248.552 190 248C190 247.448 190.448 247 191 247C191.552 247 192 247.448 192 248Z" stroke="#111111"/>
<path d="M216 239C216 239.552 215.552 240 215 240C214.448 240 214 239.552 214 239C214 238.448 214.448 238 215 238C215.552 238 216 238.448 216 239Z" stroke="#111111"/>
<path d="M167 221C167 221.552 166.552 222 166 222C165.448 222 165 221.552 165 221C165 220.448 165.448 220 166 220C166.552 220 167 220.448 167 221Z" stroke="#111111"/>
<path d="M204 237C204 237.552 203.552 238 203 238C202.448 238 202 237.552 202 237C202 236.448 202.448 236 203 236C203.552 236 204 236.448 204 237Z" stroke="#111111"/>
<path d="M204 219C204 219.552 203.552 220 203 220C202.448 220 202 219.552 202 219C202 218.448 202.448 218 203 218C203.552 218 204 218.448 204 219Z" stroke="#111111"/>
<path d="M239 233C239 233.552 238.552 234 238 234C237.448 234 237 233.552 237 233C237 232.448 237.448 232 238 232C238.552 232 239 232.448 239 233Z" stroke="#111111"/>
<path d="M239 215C239 215.552 238.552 216 238 216C237.448 216 237 215.552 237 215C237 214.448 237.448 214 238 214C238.552 214 239 214.448 239 215Z" stroke="#111111"/>
<path d="M246 217C246 217.552 245.552 218 245 218C244.448 218 244 217.552 244 217C244 216.448 244.448 216 245 216C245.552 216 246 216.448 246 217Z" stroke="#111111"/>
<path d="M261 208C261 208.552 260.552 209 260 209C259.448 209 259 208.552 259 208C259 207.448 259.448 207 260 207C260.552 207 261 207.448 261 208Z" stroke="#111111"/>
<path d="M179.5 220.5C182 237.5 210.5 245.5 236.5 226" stroke="#111111" stroke-width="4"/>
<path d="M219 132.214C224.667 129.548 238 127.114 246 138.714" stroke="#111111" stroke-width="4" stroke-linecap="round"/>
<path d="M143.579 157.521C145.65 151.61 153.261 140.396 167.142 142.822" stroke="#111111" stroke-width="4" stroke-linecap="round"/>
<path d="M146.074 151.458L139.926 146.031" stroke="#111111" stroke-width="4" stroke-linecap="round"/>
<path d="M242.961 133.157L249.109 127.73" stroke="#111111" stroke-width="4" stroke-linecap="round"/>
<path d="M152.523 145.814L148.477 138.682" stroke="#111111" stroke-width="4" stroke-linecap="round"/>
<path d="M235.512 129.513L239.559 122.381" stroke="#111111" stroke-width="4" stroke-linecap="round"/>
<path d="M160.599 142.201L158.398 134.301" stroke="#111111" stroke-width="4" stroke-linecap="round"/>
<path d="M226.436 128.9L228.637 121" stroke="#111111" stroke-width="4" stroke-linecap="round"/>
<path d="M269.178 82.3965C260.856 122.294 162.5 127.896 142.678 127.896C90.6557 133.823 115.626 196.262 125.178 227.396C117.678 228.396 118.678 237.396 89.6782 165.896C66.4782 108.696 132.184 73.8337 181 61.9995C229.816 50.1653 248.5 33.502 248.5 33.502C269.178 42 274.117 58.7185 269.178 82.3965Z" fill="#111111"/>
<path d="M264.134 155.947L248.316 102.507L258.354 93.3644C269.109 130.452 269.601 151.988 264.134 155.947Z" fill="#111111"/>
<path d="M139 201C133.4 173.8 119.333 178.667 110 180L100 136L140.584 127.506C141.336 127.266 142.141 127.095 143 127L140.584 127.506C122.433 133.299 134.956 179.796 150 199L139 201Z" fill="#111111"/>
<path d="M83.9887 98.3632C92.8341 93.9091 103.281 96.4873 107.398 98.3331L95.6273 113.213C98.6625 108.357 89.1329 101.29 83.9887 98.3632Z" fill="#111111"/>
<path d="M69 115.5C80.6 108.7 91.8333 111 96 113L91.5 128.5C90.3 120.1 76 116.333 69 115.5Z" fill="#111111"/>
<path fill-rule="evenodd" clip-rule="evenodd" d="M157.287 173.073C157.401 173.886 158.434 174.067 159.009 173.481C161.474 170.965 165.264 169.116 169.663 168.594C172.258 168.285 174.754 168.475 176.979 169.066C177.733 169.266 178.474 168.629 178.21 167.895C176.545 163.25 171.845 160.196 166.736 160.803C160.794 161.509 156.55 166.898 157.256 172.839C157.266 172.917 157.276 172.995 157.287 173.073Z" fill="#111111"/>
<path fill-rule="evenodd" clip-rule="evenodd" d="M221.385 163.073C221.498 163.886 222.531 164.067 223.106 163.482C225.549 160.996 229.298 159.17 233.648 158.653C236.213 158.348 238.68 158.535 240.88 159.117C241.634 159.316 242.375 158.679 242.111 157.946C240.456 153.352 235.804 150.335 230.748 150.935C224.862 151.635 220.658 156.973 221.357 162.859C221.366 162.93 221.375 163.002 221.385 163.073Z" fill="#111111"/>
<path d="M203.687 173.056C203.89 176.899 205.385 185.138 209.735 187.354C215.174 190.124 210.91 199.306 200.729 198.718" stroke="#111111" stroke-width="4"/>
<path d="M131 182.249V181.13L130.046 180.545C126.312 178.254 121.772 177 117.08 177C111.44 177 106.159 178.747 102.398 182.295C98.5942 185.882 96.5421 191.127 97.0869 197.666C97.6179 204.038 99.7569 208.727 103.305 211.843C103.013 212.842 102.927 213.92 103.062 215.053C103.452 218.322 105.104 220.677 107.657 222.128C110.091 223.511 113.206 224 116.524 224C122.003 224 126.808 221.053 130.466 217.111L131 216.536V215.751V182.249Z" stroke="#111111" stroke-width="4"/>
<path fill-rule="evenodd" clip-rule="evenodd" d="M136.972 197.984C137.043 197.332 137.08 196.67 137.08 196C137.08 185.783 127.573 179 117.08 179C106.587 179 98.0801 185.5 99.08 197.5C99.6364 204.177 102.026 208.572 105.731 211.217C105.142 212.241 104.885 213.444 105.048 214.817C105.677 220.098 110.186 222 116.524 222C127.629 222 136.416 207.953 136.972 197.984Z" fill="#F9C9B6"/>
<path d="M121.5 187.5C117.5 185.667 108.7 184.7 105.5 195.5" stroke="#111111" stroke-width="4"/>
<path d="M111 188C113.167 189.833 117.3 195.5 116.5 203.5" stroke="#111111" stroke-width="4"/>
<path d="M323.694 383H50.3745C66.6742 353.658 89.8579 334.982 127.445 326.412C143.458 322.761 162.113 320.939 184 320.939C193.456 320.939 200.814 322.382 207.796 324.285C210.383 324.99 212.983 325.78 215.643 326.589C220.045 327.927 224.611 329.314 229.552 330.449L229.692 330.481L229.836 330.493C275.961 334.297 303.62 354.785 323.694 383Z" fill="#9287FF" stroke="#111111" stroke-width="4"/>
<path d="M115.93 328.581L125.083 308.984C125.301 308.516 125.845 308.293 126.332 308.465C164.258 321.89 198.761 320.945 230.735 312.044C231.138 311.932 231.568 312.081 231.814 312.418L245.746 331.47C246.129 331.994 245.934 332.732 245.33 332.97C211.723 346.166 148.662 343.923 116.414 329.904C115.903 329.681 115.693 329.086 115.93 328.581Z" fill="white" stroke="#111111" stroke-width="4"/>
</g>
<defs>
<clipPath id="clip0_260_279">
<rect width="200" height="320" fill="white" transform="translate(90 43)"/>
</clipPath>
</defs>
</svg>
