<svg width="262" height="365" viewBox="0 0 262 365" fill="none" xmlns="http://www.w3.org/2000/svg">
<path d="M38 138.904C38 87.5418 79.6375 45.9043 131 45.9043C182.362 45.9043 224 87.5418 224 138.904V216.904C224 268.267 182.362 309.904 131 309.904C79.6375 309.904 38 268.267 38 216.904V138.904Z" fill="white" stroke="#2B2B2B" stroke-width="6"/>
<path fill-rule="evenodd" clip-rule="evenodd" d="M227 212.904V207.907C225.949 207.916 224.906 207.954 223.87 208.02C223.881 208.48 223.886 208.941 223.886 209.404C223.886 235.638 205.997 256.904 183.93 256.904C175.898 256.904 168.42 254.087 162.156 249.239C153.327 243.355 142.586 239.904 131 239.904C119.414 239.904 108.673 243.355 99.8438 249.239C93.5801 254.087 86.1019 256.904 78.0703 256.904C56.0028 256.904 38.1135 235.638 38.1135 209.404C38.1135 208.922 38.1196 208.442 38.1315 207.964C37.2658 207.924 36.3948 207.904 35.5189 207.904C35.3458 207.904 35.1728 207.905 35 207.907V212.904C35 265.924 77.9807 308.904 131 308.904C184.019 308.904 227 265.924 227 212.904ZM166.805 264.324C166.805 272.278 158.893 279.174 147.328 282.573C143.645 278.48 137.703 275.824 131 275.824C124.297 275.824 118.355 278.48 114.672 282.573C103.107 279.174 95.1946 272.278 95.1946 264.324C95.1946 253.002 111.225 243.824 131 243.824C150.775 243.824 166.805 253.002 166.805 264.324Z" fill="#2B2B2B"/>
<path d="M38 138.904C38 87.5418 79.6375 45.9043 131 45.9043V45.9043C182.362 45.9043 224 87.5418 224 138.904V216.904C224 268.267 182.362 309.904 131 309.904V309.904C79.6375 309.904 38 268.267 38 216.904V138.904Z" stroke="#2B2B2B" stroke-width="6"/>
<ellipse cx="130.5" cy="285.404" rx="8.5" ry="4.5" stroke="#2B2B2B" stroke-width="3"/>
<path d="M151.5 257.279C142.5 266.279 122.5 266.279 113.5 257.279" stroke="#2B2B2B" stroke-width="6"/>
<rect x="85.5" y="168.654" width="13" height="22" rx="6.5" fill="#2B2B2B"/>
<rect x="175.5" y="190.654" width="13" height="22" rx="6.5" transform="rotate(-180 175.5 190.654)" fill="#2B2B2B"/>
<path d="M75.8916 171.482C80.5098 160.927 95.9491 156.79 105.226 163.622" stroke="#2B2B2B" stroke-width="3"/>
<path d="M186.335 171.482C181.716 160.927 166.277 156.79 157 163.622" stroke="#2B2B2B" stroke-width="3"/>
<path d="M143 183.904V227.185C143 230.686 141.679 234.296 138.446 235.64C132.135 238.265 123.924 236.802 119 231.254" stroke="#2B2B2B" stroke-width="3"/>
<path fill-rule="evenodd" clip-rule="evenodd" d="M241.784 159.491C241.502 161.002 241.642 162.61 242.278 164.134C243.395 166.808 245.767 168.577 248.425 169.041C248.235 170.434 248.403 171.894 248.984 173.285C250.63 177.228 255.004 179.201 259 177.929V179.379C259 191.973 250.293 202.894 238.016 205.701L224 208.904L224 162.904L236.989 159.935C238.608 159.565 240.217 159.425 241.784 159.491Z" fill="white"/>
<path d="M241.784 159.491L244.733 160.041L245.368 156.638L241.909 156.493L241.784 159.491ZM242.278 164.134L245.047 162.978V162.978L242.278 164.134ZM248.425 169.041L251.398 169.445L251.787 166.582L248.941 166.085L248.425 169.041ZM248.984 173.285L246.216 174.441V174.441L248.984 173.285ZM259 177.929H262V173.826L258.09 175.071L259 177.929ZM238.016 205.701L238.685 208.625L238.016 205.701ZM224 208.904H221L221 212.667L224.668 211.829L224 208.904ZM224 162.904L223.332 159.98L221 160.513V162.904L224 162.904ZM236.989 159.935L237.658 162.86L236.989 159.935ZM238.835 158.94C238.449 161.008 238.642 163.21 239.51 165.29L245.047 162.978C244.642 162.009 244.555 160.996 244.733 160.041L238.835 158.94ZM239.51 165.29C241.037 168.949 244.285 171.364 247.909 171.996L248.941 166.085C247.249 165.79 245.752 164.668 245.047 162.978L239.51 165.29ZM245.452 168.636C245.193 170.544 245.423 172.544 246.216 174.441L251.752 172.129C251.383 171.244 251.278 170.324 251.398 169.445L245.452 168.636ZM246.216 174.441C248.466 179.831 254.445 182.527 259.91 180.788L258.09 175.071C255.564 175.875 252.794 174.624 251.752 172.129L246.216 174.441ZM256 177.929V179.379H262V177.929H256ZM256 179.379C256 190.574 248.261 200.282 237.348 202.776L238.685 208.625C252.326 205.507 262 193.372 262 179.379H256ZM237.348 202.776L223.332 205.98L224.668 211.829L238.685 208.625L237.348 202.776ZM227 208.904L227 162.904L221 162.904L221 208.904H227ZM224.668 165.829L237.658 162.86L236.321 157.011L223.332 159.98L224.668 165.829ZM237.658 162.86C239.015 162.55 240.356 162.434 241.658 162.488L241.909 156.493C240.077 156.417 238.201 156.581 236.321 157.011L237.658 162.86Z" fill="#2B2B2B"/>
<path d="M240 168.904L235.787 169.957C233.561 170.514 232 172.514 232 174.808V196.404" stroke="#2B2B2B" stroke-width="3"/>
<path d="M232 179.159C236.844 178.541 239.211 179.021 243 180.904" stroke="#2B2B2B" stroke-width="3"/>
<path d="M25.0108 159.935C13.7414 157.359 3 165.923 3 177.483L3 179.379C3 191.973 11.7066 202.894 23.9837 205.701L38 208.904L38 162.904L25.0108 159.935Z" fill="white" stroke="#2B2B2B" stroke-width="6"/>
<path d="M19 168.904L25.8944 170.158C28.2719 170.59 30 172.661 30 175.077V196.404" stroke="#2B2B2B" stroke-width="3"/>
<path d="M30 179.159C25.1559 178.541 22.7889 179.021 19 180.904" stroke="#2B2B2B" stroke-width="3"/>
</svg>
