<svg width="256" height="365" viewBox="0 0 256 365" fill="none" xmlns="http://www.w3.org/2000/svg">
<path d="M35 138.758C35 87.396 76.6375 45.7584 128 45.7584C179.362 45.7584 221 87.3959 221 138.758V216.758C221 268.121 179.362 309.758 128 309.758C76.6375 309.758 35 268.121 35 216.758V138.758Z" fill="#BCBCBC" stroke="#2B2B2B" stroke-width="6"/>
<path fill-rule="evenodd" clip-rule="evenodd" d="M224 212.758V207.761C222.949 207.77 221.906 207.808 220.87 207.874C220.881 208.334 220.886 208.795 220.886 209.258C220.886 235.492 202.997 256.758 180.93 256.758C172.898 256.758 165.42 253.941 159.156 249.093C150.327 243.209 139.586 239.758 128 239.758C116.414 239.758 105.673 243.209 96.8438 249.093C90.5801 253.941 83.1019 256.758 75.0703 256.758C53.0028 256.758 35.1135 235.492 35.1135 209.258C35.1135 208.776 35.1196 208.296 35.1315 207.818C34.2658 207.778 33.3948 207.758 32.5189 207.758C32.3458 207.758 32.1728 207.759 32 207.761V212.758C32 265.778 74.9807 308.758 128 308.758C181.019 308.758 224 265.778 224 212.758ZM163.805 264.178C163.805 272.132 155.893 279.029 144.328 282.427C140.645 278.335 134.703 275.678 128 275.678C121.297 275.678 115.355 278.335 111.672 282.427C100.107 279.029 92.1946 272.132 92.1946 264.178C92.1946 252.856 108.225 243.678 128 243.678C147.775 243.678 163.805 252.856 163.805 264.178Z" fill="#2B2B2B"/>
<path d="M35 138.758C35 87.3959 76.6375 45.7584 128 45.7584V45.7584C179.362 45.7584 221 87.3959 221 138.758V216.758C221 268.121 179.362 309.758 128 309.758V309.758C76.6375 309.758 35 268.121 35 216.758V138.758Z" stroke="#2B2B2B" stroke-width="6"/>
<path d="M114 288.758C120.395 282.092 134.605 282.092 141 288.758" stroke="#2B2B2B" stroke-width="3"/>
<path d="M127.5 297.758V288.758" stroke="#2B2B2B" stroke-width="3"/>
<path d="M156 266.758L142.282 258.936C140.976 258.191 139.407 258.077 137.982 258.558C135.691 259.332 132.167 260.389 130 260.39C127.857 260.391 124.916 259.413 122.945 258.649C121.581 258.12 120.054 258.109 118.723 258.718L104 265.457" stroke="#2B2B2B" stroke-width="6"/>
<path d="M150 270.078C138.725 282.778 118.225 280.469 109 270.078M123.643 247.758L129.607 248.332C129.925 248.363 130.246 248.363 130.565 248.332L136.529 247.758" stroke="#2B2B2B" stroke-width="3"/>
<rect x="82.5" y="171.508" width="13" height="22" rx="6.5" fill="#2B2B2B"/>
<rect x="159.5" y="171.508" width="13" height="22" rx="6.5" fill="#2B2B2B"/>
<path d="M70 164.508C79 155.508 99 155.508 108 164.508" stroke="#2B2B2B" stroke-width="3"/>
<path d="M147 164.508C156 155.508 176 155.508 185 164.508" stroke="#2B2B2B" stroke-width="3"/>
<path d="M110 230.434C114.499 232.45 117.985 233.965 122.161 235.641C126.337 237.316 129.999 236.933 134.437 235.641C138.874 234.348 144.067 232.44 147.689 230.598C151.31 228.756 152.914 225.113 151.476 221.419C148.674 214.222 141.506 207.774 140.474 198.758" stroke="#2B2B2B" stroke-width="3"/>
<path d="M26.5022 161.938C13.9893 158.548 2.10423 169.098 3.9864 181.925L5.63053 193.129C7.08744 203.058 13.9305 211.36 23.3985 214.684L35 218.758L35 164.24L26.5022 161.938Z" fill="#BCBCBC" stroke="#2B2B2B" stroke-width="6"/>
<path d="M16 168.758L22.8944 170.012C25.2719 170.444 27 172.515 27 174.931V196.258" stroke="#2B2B2B" stroke-width="3"/>
<path d="M27 179.013C22.1559 178.395 19.7889 178.875 16 180.758" stroke="#2B2B2B" stroke-width="3"/>
<path d="M229.498 161.938C242.011 158.548 253.896 169.098 252.014 181.925L250.369 193.129C248.913 203.058 242.07 211.36 232.601 214.684L221 218.758L221 164.24L229.498 161.938Z" fill="#BCBCBC" stroke="#2B2B2B" stroke-width="6"/>
<path d="M240 168.758L233.106 170.012C230.728 170.444 229 172.515 229 174.931V196.258" stroke="#2B2B2B" stroke-width="3"/>
<path d="M229 179.013C233.844 178.395 236.211 178.875 240 180.758" stroke="#2B2B2B" stroke-width="3"/>
</svg>
