<svg width="256" height="370" viewBox="0 0 256 370" fill="none" xmlns="http://www.w3.org/2000/svg">
<path d="M39.5654 153.099C37.0811 102.651 77.3144 60.3876 127.824 60.3876C178.466 60.3876 218.748 102.862 216.066 153.433L211.975 230.575C210.838 252.01 203.646 272.683 191.234 290.196L189.806 292.211C175.501 312.394 152.299 324.388 127.561 324.388C102.755 324.388 79.4981 312.328 65.2053 292.054L63.8876 290.185C51.5479 272.681 44.437 252.031 43.3837 230.641L39.5654 153.099Z" fill="white" stroke="#2B2B2B" stroke-width="6"/>
<path d="M119 303.888C123.026 297.221 131.974 297.221 136 303.888" stroke="#2B2B2B" stroke-width="3"/>
<path d="M148.5 271.763C139.5 280.763 119.5 280.763 110.5 271.763" stroke="#2B2B2B" stroke-width="6"/>
<rect x="85" y="186.638" width="9" height="22" rx="4.5" fill="#2B2B2B"/>
<rect x="162" y="185.638" width="9" height="22" rx="4.5" fill="#2B2B2B"/>
<path d="M72 182.638C74.3442 180.293 77.4347 178.56 80.8827 177.437M110 182.638C105.086 177.723 96.8919 175.492 89 175.945M68 176.638L74.5 180.138M70 173.638L78 178.638M74 171.638L80.8827 177.437M80.8827 177.437C81.7352 177.159 82.6096 176.919 83.5 176.716M78.8827 169.638L83.5 176.716M83.5 176.716C84.3213 176.528 85.1561 176.373 86 176.249M84 169.638L86 176.249M86 176.249C86.9901 176.104 87.9926 176.003 89 175.945M89 171.638V175.945" stroke="#2B2B2B" stroke-width="3"/>
<path d="M183 182.638C180.656 180.293 177.565 178.56 174.117 177.437M145 182.638C149.914 177.723 158.108 175.492 166 175.945M187 176.638L180.5 180.138M185 173.638L177 178.638M181 171.638L174.117 177.437M174.117 177.437C173.265 177.159 172.39 176.919 171.5 176.716M176.117 169.638L171.5 176.716M171.5 176.716C170.679 176.528 169.844 176.373 169 176.249M171 169.638L169 176.249M169 176.249C168.01 176.104 167.007 176.003 166 175.945M166 171.638V175.945" stroke="#2B2B2B" stroke-width="3"/>
<path d="M140 206.388V241.848C140 245.709 138.293 249.793 134.464 250.281C128.617 251.025 121.63 247.781 117 243.334" stroke="#2B2B2B" stroke-width="3"/>
<path fill-rule="evenodd" clip-rule="evenodd" d="M22 166.611L22 164.621C22 106.003 69.5191 58.4842 128.137 58.4842C184.695 58.4842 230.921 102.723 234.099 158.486C226.603 161.002 218.538 162.371 210.136 162.371C184.703 162.371 162.351 149.826 149.542 130.885C130.687 153.821 94.1354 169.371 52.136 169.371C41.6909 169.371 31.5828 168.41 22 166.611Z" fill="#2B2B2B"/>
<path d="M128.053 112.765C104.752 112.946 85.7101 69.2296 85.5202 44.728C85.3304 20.2264 104.065 0.217514 127.365 0.036976C150.665 -0.143562 169.708 19.5726 169.897 44.0742C170.087 68.5758 151.353 112.585 128.053 112.765Z" fill="#2B2B2B"/>
<path d="M39 160.371L22 158.871L20.6709 208.38C20.3033 222.073 31.3028 233.371 45 233.371L39 160.371Z" fill="#2B2B2B"/>
<path d="M217 159.371L234 157.871L235.329 207.38C235.697 221.073 224.697 232.371 211 232.371L217 159.371Z" fill="#2B2B2B"/>
<path d="M150 132.871C157.5 122.371 160.586 111.988 157.5 96.3713" stroke="white" stroke-width="3"/>
<path d="M49 44.2865L89.6334 65.7673" stroke="#2B2B2B" stroke-width="3"/>
<path d="M195.633 46.2865L155 67.7673" stroke="#2B2B2B" stroke-width="3"/>
<path d="M90 65.8395L107.522 75.1022" stroke="white" stroke-width="3"/>
<path d="M217.166 176.044C228.953 172.917 240.373 182.169 239.759 194.348L239.677 195.978C239.086 207.705 230.984 217.705 219.635 220.717L213.314 222.394L215.629 176.452L217.166 176.044Z" fill="white" stroke="#2B2B2B" stroke-width="6"/>
<circle cx="222" cy="248.388" r="9" fill="#2B2B2B"/>
<path d="M38.7364 176.197C26.9978 172.892 15.4395 181.971 15.8695 194.158L15.9271 195.79C16.3411 207.524 24.2911 217.645 35.5932 220.827L41.8885 222.599L40.2665 176.628L38.7364 176.197Z" fill="white" stroke="#2B2B2B" stroke-width="6"/>
<path d="M234.63 183.731L233.474 183.881C227.723 184.63 223.331 189.385 223.039 195.177L222.259 210.642" stroke="#2B2B2B" stroke-width="3"/>
<path d="M223.127 193.418C227.996 193.045 230.336 193.644 234.026 195.716" stroke="#2B2B2B" stroke-width="3"/>
<path d="M21.5576 183.625L22.7109 183.793C28.4498 184.628 32.7699 189.448 32.9744 195.244L33.5205 210.72" stroke="#2B2B2B" stroke-width="3"/>
<path d="M32.9123 193.485C28.0494 193.038 25.7008 193.602 21.9807 195.617" stroke="#2B2B2B" stroke-width="3"/>
<circle cx="33" cy="248.388" r="9" fill="#2B2B2B"/>
<path d="M222 220.388V242.388" stroke="#2B2B2B" stroke-width="3"/>
<path d="M33 220.388V242.388" stroke="#2B2B2B" stroke-width="3"/>
</svg>
