<svg width="256" height="365" viewBox="0 0 256 365" fill="none" xmlns="http://www.w3.org/2000/svg">
<path d="M35 138.758C35 87.396 76.6375 45.7584 128 45.7584C179.362 45.7584 221 87.3959 221 138.758V216.758C221 268.121 179.362 309.758 128 309.758C76.6375 309.758 35 268.121 35 216.758V138.758Z" fill="white" stroke="#2B2B2B" stroke-width="6"/>
<path fill-rule="evenodd" clip-rule="evenodd" d="M224 208.261V213.258C224 266.278 181.019 309.258 128 309.258C74.9807 309.258 32 266.278 32 213.258V208.261C32.1728 208.259 32.3458 208.258 32.5189 208.258C33.3948 208.258 34.2658 208.278 35.1315 208.318C35.1196 208.796 35.1135 209.276 35.1135 209.758C35.1135 235.992 53.0028 257.258 75.0703 257.258C83.1019 257.258 90.5801 254.441 96.8438 249.593C105.673 243.709 116.414 240.258 128 240.258C139.586 240.258 150.327 243.709 159.156 249.593C165.42 254.441 172.898 257.258 180.93 257.258C202.997 257.258 220.886 235.992 220.886 209.758C220.886 209.295 220.881 208.834 220.87 208.374C221.906 208.308 222.949 208.27 224 208.261Z" fill="#BCBCBC"/>
<path d="M80.6563 244.903C97.9286 244.903 126.849 224.665 129.824 241.68C129.94 242.34 130 243.029 130 243.748C130 252.038 119.619 258.758 106.814 258.758C95.0321 258.758 67.8686 256.69 67 242.024C70.8304 243.834 75.5506 244.903 80.6563 244.903Z" fill="#2B2B2B"/>
<path d="M175.344 244.903C158.071 244.903 129.151 224.665 126.176 241.68C126.06 242.34 126 243.029 126 243.748C126 252.038 136.381 258.758 149.186 258.758C160.968 258.758 188.131 256.69 189 242.024C185.17 243.834 180.449 244.903 175.344 244.903Z" fill="#2B2B2B"/>
<path d="M70.3999 263.758L72.4756 267.758M95.3081 278.758L98.9405 275.758M91.1567 256.258L91.6756 261.258M158.616 277.258L160.692 273.258M97.9026 293.758L100.497 297.758M183.524 261.258L184.043 266.758M198.573 249.758L200.649 253.758M106.205 242.758L108.281 247.258M49.1243 250.258L52.7567 246.758M165.881 252.758L164.324 257.258M172.627 275.758L170.032 269.758M157.578 292.758L158.616 297.758M192.865 287.258L195.459 291.258M57.9459 282.258L53.2756 287.758M54.3135 263.758L50.1621 267.758M103.092 306.758L100.497 311.758" stroke="#2B2B2B" stroke-width="3"/>
<path d="M35 138.758C35 87.3959 76.6375 45.7584 128 45.7584V45.7584C179.362 45.7584 221 87.3959 221 138.758V216.758C221 268.121 179.362 309.758 128 309.758V309.758C76.6375 309.758 35 268.121 35 216.758V138.758Z" stroke="#2B2B2B" stroke-width="6"/>
<path d="M114 288.758C120.395 282.092 134.605 282.092 141 288.758" stroke="#2B2B2B" stroke-width="3"/>
<path d="M127.5 297.758V288.758" stroke="#2B2B2B" stroke-width="3"/>
<path d="M148.5 257.133C139.5 266.133 119.5 266.133 110.5 257.133" stroke="#2B2B2B" stroke-width="6"/>
<rect x="82.5" y="171.508" width="13" height="22" rx="6.5" fill="#2B2B2B"/>
<rect x="159.5" y="171.508" width="13" height="22" rx="6.5" fill="#2B2B2B"/>
<path d="M70 164.508C79 155.508 99 155.508 108 164.508" stroke="#2B2B2B" stroke-width="3"/>
<path d="M147 164.508C156 155.508 176 155.508 185 164.508" stroke="#2B2B2B" stroke-width="3"/>
<path d="M140 183.758V227.039C140 230.54 138.679 234.15 135.446 235.494C129.135 238.119 120.924 236.657 116 231.108" stroke="#2B2B2B" stroke-width="3"/>
<path fill-rule="evenodd" clip-rule="evenodd" d="M38 144.644C38.0054 144.643 38.0107 144.643 38.0161 144.643C38.0054 144.183 38 143.721 38 143.258C38 117.025 55.237 95.7584 76.5 95.7584C84.2388 95.7584 91.4444 98.5755 97.4797 103.424C105.987 109.307 116.337 112.758 127.5 112.758C138.847 112.758 149.354 109.193 157.939 103.131C158.61 102.657 159.368 102.343 160.166 102.173C165.847 98.0946 172.453 95.7584 179.5 95.7584C200.757 95.7584 217.991 117.013 218 143.237V138.081C218 88.3753 177.706 48.0809 128 48.0809C78.2944 48.0809 38 88.3752 38 138.081L38 143.258L38 144.644ZM218 143.28V144.737C217.994 144.737 217.988 144.737 217.982 144.737C217.994 144.253 218 143.767 218 143.28Z" fill="#BCBCBC"/>
<path d="M66.4 72.0809L68.4756 76.0809M91.3081 87.0809L94.9405 84.0809M87.1567 64.5809L87.6756 69.5809M154.616 85.5809L156.692 81.5809M109.903 86.0809L112.497 90.0809M179.524 69.5809L180.043 75.0809M194.573 87.0809L196.649 91.0809M111.205 63.0809L113.281 67.5809M133.124 58.5809L136.757 55.0809M161.881 61.0809L160.324 65.5809M168.627 84.0809L166.032 78.0809M145.578 93.0809L146.616 98.0809M180.865 87.5809L183.459 91.5809M58.9459 90.5809L54.2756 96.0809M138.313 72.0809L134.162 76.0809M129.092 97.0809L126.497 102.081" stroke="#2B2B2B" stroke-width="3"/>
<path d="M26.5022 161.938C13.9893 158.548 2.10423 169.098 3.9864 181.925L5.63053 193.129C7.08744 203.058 13.9305 211.36 23.3985 214.684L35 218.758L35 164.24L26.5022 161.938Z" fill="#BCBCBC" stroke="#2B2B2B" stroke-width="6"/>
<path d="M16 168.758L22.8944 170.012C25.2719 170.444 27 172.515 27 174.931V196.258" stroke="#2B2B2B" stroke-width="3"/>
<path d="M27 179.013C22.1559 178.395 19.7889 178.875 16 180.758" stroke="#2B2B2B" stroke-width="3"/>
<path d="M229.498 161.938C242.011 158.548 253.896 169.098 252.014 181.925L250.369 193.129C248.913 203.058 242.07 211.36 232.601 214.684L221 218.758L221 164.24L229.498 161.938Z" fill="#BCBCBC" stroke="#2B2B2B" stroke-width="6"/>
<path d="M240 168.758L233.106 170.012C230.728 170.444 229 172.515 229 174.931V196.258" stroke="#2B2B2B" stroke-width="3"/>
<path d="M229 179.013C233.844 178.395 236.211 178.875 240 180.758" stroke="#2B2B2B" stroke-width="3"/>
</svg>
