<svg width="256" height="365" viewBox="0 0 256 365" fill="none" xmlns="http://www.w3.org/2000/svg">
<path d="M35 138.129C35 86.7667 76.6375 45.1292 128 45.1292C179.362 45.1292 221 86.7667 221 138.129V216.129C221 267.492 179.362 309.129 128 309.129C76.6375 309.129 35 267.492 35 216.129V138.129Z" fill="white" stroke="#2B2B2B" stroke-width="6"/>
<path fill-rule="evenodd" clip-rule="evenodd" d="M228.152 264.497V207.244C226.951 207.168 225.74 207.129 224.519 207.129C223.293 207.129 222.076 207.168 220.87 207.245C220.881 207.705 220.887 208.166 220.887 208.629C220.887 234.863 202.997 256.129 180.93 256.129C172.898 256.129 165.42 253.312 159.157 248.464C150.327 242.58 139.586 239.129 128 239.129C116.415 239.129 105.673 242.58 96.8439 248.464C90.5803 253.312 83.1021 256.129 75.0705 256.129C53.003 256.129 35.1137 234.863 35.1137 208.629C35.1137 208.147 35.1198 207.667 35.1318 207.189C34.266 207.149 33.395 207.129 32.5191 207.129C31.2985 207.129 30.0873 207.168 28.8867 207.244V264.497C28.8867 319.522 73.4937 364.129 128.519 364.129C183.545 364.129 228.152 319.522 228.152 264.497ZM163.806 263.549C163.806 271.503 155.893 278.399 144.328 281.798C140.645 277.705 134.703 275.049 128 275.049C121.297 275.049 115.355 277.705 111.673 281.798C100.108 278.399 92.1948 271.503 92.1948 263.549C92.1948 252.227 108.225 243.049 128 243.049C147.775 243.049 163.806 252.227 163.806 263.549Z" fill="#2B2B2B"/>
<path fill-rule="evenodd" clip-rule="evenodd" d="M102.347 238.998C94.7825 241.589 86.9469 244.274 80.6563 244.274C75.5506 244.274 70.8304 243.205 67 241.395C67.8686 256.061 95.0321 258.129 106.814 258.129C116.26 258.129 124.386 254.473 128 249.227C131.614 254.473 139.74 258.129 149.186 258.129C160.968 258.129 188.131 256.061 189 241.395C185.17 243.205 180.449 244.274 175.344 244.274C169.053 244.274 161.218 241.589 153.653 238.998C142.69 235.242 132.297 231.682 128 236.769C123.703 231.682 113.31 235.242 102.347 238.998Z" fill="#2B2B2B"/>
<path d="M35 138.129C35 86.7667 76.6375 45.1292 128 45.1292V45.1292C179.362 45.1292 221 86.7667 221 138.129V216.129C221 267.492 179.362 309.129 128 309.129V309.129C76.6375 309.129 35 267.492 35 216.129V138.129Z" stroke="#2B2B2B" stroke-width="6"/>
<path d="M114 288.129C120.395 281.463 134.605 281.463 141 288.129" stroke="#2B2B2B" stroke-width="3"/>
<path d="M127.5 297.129V288.129" stroke="#2B2B2B" stroke-width="3"/>
<path d="M148.5 256.504C139.5 265.504 119.5 265.504 110.5 256.504" stroke="#2B2B2B" stroke-width="6"/>
<rect x="82.5" y="170.879" width="13" height="22" rx="6.5" fill="#2B2B2B"/>
<rect x="159.5" y="170.879" width="13" height="22" rx="6.5" fill="#2B2B2B"/>
<path d="M70 163.879C79 154.879 99 154.879 108 163.879" stroke="#2B2B2B" stroke-width="3"/>
<path d="M147 163.879C156 154.879 176 154.879 185 163.879" stroke="#2B2B2B" stroke-width="3"/>
<path d="M140 183.129V226.41C140 229.911 138.679 233.521 135.446 234.865C129.135 237.49 120.924 236.027 116 230.478" stroke="#2B2B2B" stroke-width="3"/>
<path fill-rule="evenodd" clip-rule="evenodd" d="M35 144.127V187.738C24.4882 175.369 18 158.379 18 139.629C18 109.435 34.8267 83.8033 58.187 74.6853C60.1432 72.4644 62.2036 70.3376 64.3607 68.3126C79.2747 48.7794 110.453 35.3387 146.5 35.3387C197.034 35.3387 238 61.7539 238 94.3387C238 107.226 231.592 119.148 220.719 128.852C220.905 131.254 221 133.68 221 136.129V144.108C220.502 144.122 220.002 144.129 219.5 144.129C218.992 144.129 218.486 144.122 217.982 144.108C217.994 143.617 218 143.124 218 142.629C218 116.396 200.763 95.1292 179.5 95.1292C172.453 95.1292 165.847 97.4654 160.166 101.544C159.368 101.714 158.61 102.028 157.939 102.502C149.354 108.564 138.847 112.129 127.5 112.129C116.337 112.129 105.987 108.678 97.4797 102.795C91.4444 97.9463 84.2388 95.1292 76.5 95.1292C55.237 95.1292 38 116.396 38 142.629C38 143.092 38.0054 143.554 38.016 144.013C37.0181 144.079 36.0125 144.117 35 144.127Z" fill="#2B2B2B"/>
<path d="M84.4531 87.4587C81.3331 79.6118 72.2661 73.3722 61.636 76.0843" stroke="#BCBCBC" stroke-width="3"/>
<path d="M26.5022 161.309C13.9893 157.919 2.10423 168.469 3.9864 181.296L5.63053 192.5C7.08744 202.429 13.9305 210.73 23.3985 214.055L35 218.129L35 163.611L26.5022 161.309Z" fill="white" stroke="#2B2B2B" stroke-width="6"/>
<path d="M16 168.129L22.8944 169.383C25.2719 169.815 27 171.886 27 174.302V195.629" stroke="#2B2B2B" stroke-width="3"/>
<path d="M27 178.383C22.1559 177.766 19.7889 178.246 16 180.129" stroke="#2B2B2B" stroke-width="3"/>
<path d="M229.498 161.309C242.011 157.919 253.896 168.469 252.014 181.296L250.369 192.5C248.913 202.429 242.07 210.73 232.601 214.055L221 218.129L221 163.611L229.498 161.309Z" fill="white" stroke="#2B2B2B" stroke-width="6"/>
<path d="M240 168.129L233.106 169.383C230.728 169.815 229 171.886 229 174.302V195.629" stroke="#2B2B2B" stroke-width="3"/>
<path d="M229 178.383C233.844 177.766 236.211 178.246 240 180.129" stroke="#2B2B2B" stroke-width="3"/>
</svg>
