<svg width="256" height="315" viewBox="0 0 256 315" fill="none" xmlns="http://www.w3.org/2000/svg">
<path d="M128 45.1292C76.6375 45.1292 35 86.7667 35 138.129V216.129C35 251.696 54.9658 269.6 84.301 285.244C95.2437 296.87 110.774 304.129 128 304.129C145.226 304.129 160.756 296.87 171.699 285.244C201.034 269.6 221 251.696 221 216.129V138.129C221 86.7667 179.362 45.1292 128 45.1292Z" fill="white" stroke="#2B2B2B" stroke-width="6"/>
<path d="M127.5 297.129V288.129" stroke="#2B2B2B" stroke-width="3"/>
<path d="M153 262.129L140.909 256.067C139.712 255.467 138.327 255.375 137.044 255.756C135.017 256.358 131.912 257.175 130 257.176C128.112 257.177 125.524 256.422 123.781 255.829C122.55 255.41 121.205 255.401 119.998 255.886L107 261.117" stroke="#2B2B2B" stroke-width="6"/>
<path d="M148 265.129C137.825 275.37 119.325 273.508 111 265.129M124.214 245.129L127.45 247.077C129.036 248.032 131.021 248.032 132.607 247.077L135.843 245.129" stroke="#2B2B2B" stroke-width="3"/>
<path d="M79 167.129H94V173.629C94 177.771 90.6421 181.129 86.5 181.129C82.3579 181.129 79 177.771 79 173.629V167.129Z" fill="#2B2B2B"/>
<path d="M174 167.129H159V173.629C159 177.771 162.358 181.129 166.5 181.129C170.642 181.129 174 177.771 174 173.629V167.129Z" fill="#2B2B2B"/>
<path d="M64.0733 172.633C75.7211 162.901 99.4763 165.03 109.208 176.677" stroke="#2B2B2B" stroke-width="3"/>
<path d="M188.88 173.114C177.439 163.14 153.645 164.769 143.67 176.209" stroke="#2B2B2B" stroke-width="3"/>
<path d="M112.5 230.129C116.434 232.188 119.482 233.735 123.133 235.446C126.785 237.157 129.986 236.766 133.867 235.446C137.747 234.126 142.287 232.177 145.454 230.296C148.62 228.415 150.022 224.695 148.765 220.923C146.315 213.573 140.048 211.116 139.145 201.909L137.5 185.129" stroke="#2B2B2B" stroke-width="3"/>
<path fill-rule="evenodd" clip-rule="evenodd" d="M35 144.127V187.738C24.4882 175.369 18 158.379 18 139.629C18 109.435 34.8267 83.8033 58.187 74.6853C60.1432 72.4644 62.2036 70.3376 64.3607 68.3126C79.2747 48.7794 110.453 35.3387 146.5 35.3387C197.034 35.3387 238 61.7539 238 94.3387C238 107.226 231.592 119.148 220.719 128.852C220.905 131.254 221 133.68 221 136.129V144.108C220.502 144.122 220.002 144.129 219.5 144.129C218.992 144.129 218.486 144.122 217.982 144.108C217.994 143.617 218 143.124 218 142.629C218 116.396 200.763 95.1292 179.5 95.1292C172.453 95.1292 165.847 97.4654 160.166 101.544C159.368 101.714 158.61 102.028 157.939 102.502C149.354 108.564 138.847 112.129 127.5 112.129C116.337 112.129 105.987 108.678 97.4797 102.795C91.4444 97.9463 84.2388 95.1292 76.5 95.1292C55.237 95.1292 38 116.396 38 142.629C38 143.092 38.0054 143.554 38.016 144.013C37.0181 144.079 36.0125 144.117 35 144.127Z" fill="#2B2B2B"/>
<path d="M84.4531 87.4587C81.3331 79.6118 72.2661 73.3722 61.636 76.0843" stroke="#BCBCBC" stroke-width="3"/>
<path fill-rule="evenodd" clip-rule="evenodd" d="M18.3347 172.641C16.866 163.462 25.9666 156.185 34.5981 159.638C34.8424 159.736 35.006 159.968 35.0156 160.231L36.9857 214.409C36.9917 214.573 36.8107 214.675 36.6735 214.586C29.5173 209.919 24.5002 202.608 22.7194 194.252L18.9999 176.799L18.3347 172.641ZM237.664 172.65C239.133 163.466 230.029 156.187 221.394 159.641C221.154 159.737 220.991 159.964 220.977 160.222L218.021 214.415C218.012 214.578 218.189 214.685 218.329 214.601C226.092 209.943 231.571 202.271 233.458 193.417L237 176.799L237.664 172.65Z" fill="white"/>
<path d="M34.5981 159.638L35.7122 156.852L35.7122 156.852L34.5981 159.638ZM18.3347 172.641L21.2971 172.167L21.2971 172.167L18.3347 172.641ZM35.0156 160.231L38.0136 160.122L38.0136 160.122L35.0156 160.231ZM36.9857 214.409L39.9837 214.3L39.9837 214.3L36.9857 214.409ZM36.6735 214.586L38.3123 212.073L38.3123 212.073L36.6735 214.586ZM22.7194 194.252L25.6535 193.626L22.7194 194.252ZM18.9999 176.799L16.0376 177.273L16.0497 177.349L16.0658 177.424L18.9999 176.799ZM221.394 159.641L222.508 162.426L222.508 162.426L221.394 159.641ZM237.664 172.65L240.626 173.124L240.626 173.124L237.664 172.65ZM220.977 160.222L217.981 160.059L217.981 160.059L220.977 160.222ZM218.021 214.415L221.016 214.578L221.016 214.578L218.021 214.415ZM218.329 214.601L216.786 212.028L216.786 212.028L218.329 214.601ZM233.458 193.417L230.524 192.792L230.524 192.792L233.458 193.417ZM237 176.799L239.934 177.424L239.95 177.349L239.962 177.273L237 176.799ZM35.7122 156.852C24.9172 152.534 13.5355 161.635 15.3724 173.115L21.2971 172.167C20.1965 165.289 27.0159 159.836 33.4839 162.423L35.7122 156.852ZM38.0136 160.122C37.9609 158.673 37.0587 157.391 35.7122 156.852L33.4839 162.423C32.626 162.08 32.0512 161.263 32.0176 160.34L38.0136 160.122ZM39.9837 214.3L38.0136 160.122L32.0176 160.34L33.9877 214.518L39.9837 214.3ZM35.0347 217.099C37.2089 218.516 40.078 216.894 39.9837 214.3L33.9877 214.518C33.9053 212.252 36.4125 210.834 38.3123 212.073L35.0347 217.099ZM19.7853 194.877C21.7314 204.009 27.2142 211.998 35.0347 217.099L38.3123 212.073C31.8204 207.839 27.269 201.207 25.6535 193.626L19.7853 194.877ZM16.0658 177.424L19.7853 194.877L25.6535 193.626L21.934 176.173L16.0658 177.424ZM15.3724 173.115L16.0376 177.273L21.9622 176.325L21.2971 172.167L15.3724 173.115ZM222.508 162.426C228.979 159.838 235.803 165.293 234.701 172.176L240.626 173.124C242.464 161.639 231.078 152.536 220.28 156.856L222.508 162.426ZM223.972 160.386C223.923 161.293 223.352 162.089 222.508 162.426L220.28 156.856C218.956 157.385 218.059 158.635 217.981 160.059L223.972 160.386ZM221.016 214.578L223.972 160.386L217.981 160.059L215.025 214.251L221.016 214.578ZM216.786 212.028C218.708 210.875 221.139 212.34 221.016 214.578L215.025 214.251C214.885 216.817 217.67 218.495 219.873 217.173L216.786 212.028ZM230.524 192.792C228.811 200.832 223.835 207.799 216.786 212.028L219.873 217.173C228.349 212.088 234.332 203.71 236.392 194.043L230.524 192.792ZM234.066 176.173L230.524 192.792L236.392 194.043L239.934 177.424L234.066 176.173ZM234.701 172.176L234.038 176.325L239.962 177.273L240.626 173.124L234.701 172.176Z" fill="#2B2B2B"/>
<path d="M25 169.129V169.129C30.3505 170.318 34.2896 174.997 34.4655 180.475L35 197.129" stroke="#2B2B2B" stroke-width="3"/>
<path d="M232.618 169.817V169.817C227.164 170.366 222.7 174.548 221.879 179.967L219.382 196.441" stroke="#2B2B2B" stroke-width="3"/>
<path d="M221.429 204.375C226.323 203.502 230.997 206.761 231.87 211.655C232.742 216.548 229.483 221.222 224.59 222.095C221.31 222.68 218.129 221.409 216.125 219.034" stroke="#2B2B2B" stroke-width="3"/>
<circle cx="87.5" cy="175.879" r="28.5" stroke="#2B2B2B" stroke-width="6"/>
<circle cx="167.5" cy="175.879" r="28.5" stroke="#2B2B2B" stroke-width="6"/>
<path d="M114 175.379C125.268 171.142 131.098 171.624 141 175.379" stroke="#2B2B2B" stroke-width="6"/>
<path d="M196 171.379L228 155.379" stroke="#2B2B2B" stroke-width="6"/>
<path d="M59 171.379L26 155.379" stroke="#2B2B2B" stroke-width="6"/>
</svg>
