<svg width="285" height="355" viewBox="0 0 285 355" fill="none" xmlns="http://www.w3.org/2000/svg">
<path d="M52.5654 137.841C50.0811 87.3923 90.3144 45.1292 140.824 45.1292C191.466 45.1292 231.748 87.6039 229.066 138.174L224.975 215.316C223.838 236.751 216.646 257.425 204.234 274.938L202.806 276.953C188.501 297.135 165.299 309.129 140.561 309.129C115.755 309.129 92.4981 297.069 78.2053 276.795L76.8876 274.926C64.5479 257.423 57.437 236.772 56.3837 215.382L52.5654 137.841Z" fill="white" stroke="#2B2B2B" stroke-width="6"/>
<path d="M132 288.629C136.026 281.963 144.974 281.963 149 288.629" stroke="#2B2B2B" stroke-width="3"/>
<path d="M161.5 256.504C152.5 265.504 132.5 265.504 123.5 256.504" stroke="#2B2B2B" stroke-width="6"/>
<rect x="98" y="171.379" width="9" height="22" rx="4.5" fill="#2B2B2B"/>
<rect x="175" y="170.379" width="9" height="22" rx="4.5" fill="#2B2B2B"/>
<path d="M85 167.379C87.3442 165.035 90.4347 163.301 93.8827 162.178M123 167.379C118.086 162.465 109.892 160.234 102 160.686M81 161.379L87.5 164.879M83 158.379L91 163.379M87 156.379L93.8827 162.178M93.8827 162.178C94.7352 161.901 95.6096 161.66 96.5 161.457M91.8827 154.379L96.5 161.457M96.5 161.457C97.3213 161.27 98.1561 161.115 99 160.991M97 154.379L99 160.991M99 160.991C99.9901 160.846 100.993 160.744 102 160.686M102 156.379V160.686" stroke="#2B2B2B" stroke-width="3"/>
<path d="M196 167.379C193.656 165.035 190.565 163.301 187.117 162.178M158 167.379C162.914 162.465 171.108 160.234 179 160.686M200 161.379L193.5 164.879M198 158.379L190 163.379M194 156.379L187.117 162.178M187.117 162.178C186.265 161.901 185.39 161.66 184.5 161.457M189.117 154.379L184.5 161.457M184.5 161.457C183.679 161.27 182.844 161.115 182 160.991M184 154.379L182 160.991M182 160.991C181.01 160.846 180.007 160.744 179 160.686M179 156.379V160.686" stroke="#2B2B2B" stroke-width="3"/>
<path d="M152.345 212.129L152.843 227.163C152.945 230.213 152.107 233.482 149.399 234.889C144.408 237.481 137.752 236.011 134 230.478" stroke="#2B2B2B" stroke-width="3"/>
<path d="M39 158.129C71.7925 150.608 92.5843 149.105 119.924 153.827C133.411 156.157 147.185 156.36 160.695 154.171C189.076 149.572 209.56 150.825 241 158.129" stroke="#2B2B2B" stroke-width="6"/>
<path d="M58 153.129L66.6346 182.782C69.2874 191.893 76.6929 198.834 85.9557 200.894L100.358 204.095C116.596 207.705 132 195.349 132 178.715V155.571" stroke="#2B2B2B" stroke-width="6"/>
<path d="M223 153.129L214.386 183.532C211.732 192.901 204.065 200.001 194.521 201.93L180.15 204.834C164.047 208.088 149 195.778 149 179.349V155.571" stroke="#2B2B2B" stroke-width="6"/>
<path fill-rule="evenodd" clip-rule="evenodd" d="M247.099 151.353L247.099 149.363C247.099 90.7449 199.58 43.2258 140.962 43.2258C84.404 43.2258 38.1781 87.4648 35 143.227C42.4963 145.744 50.5618 147.113 58.9633 147.113C84.3959 147.113 106.749 134.568 119.558 115.627C138.413 138.562 174.964 154.113 216.963 154.113C227.408 154.113 237.517 153.151 247.099 151.353Z" fill="#2B2B2B"/>
<path d="M52 145.113L35 143.613L33.6709 193.122C33.3033 206.814 44.3028 218.113 58 218.113L52 145.113Z" fill="#2B2B2B"/>
<path d="M230 144.113L247 142.613L248.329 192.122C248.697 205.814 237.697 217.113 224 217.113L230 144.113Z" fill="#2B2B2B"/>
<path d="M119.099 117.613C111.599 107.113 108.513 96.7291 111.599 81.1129" stroke="white" stroke-width="3"/>
<path d="M90.1924 152.372L96.63 150.892C97.6879 150.649 98.7623 150.485 99.8444 150.401C123.021 148.605 127.826 116.71 106.208 108.165L78.0673 97.0421C61.5125 90.4984 43.0342 100.331 39.2124 117.717L33.6736 142.914C32.5693 147.937 30.4569 152.684 27.4642 156.867L17.3732 170.971L9.42131 184.661C5.71958 191.034 5.01062 198.713 7.48301 205.656C10.0717 212.925 8.88113 220.973 5.62288 227.968C-30.244 304.969 118.779 306.596 78.6115 228.551C73.7675 219.14 71.4805 208.24 74.5799 198.119L75.8804 193.872C77.2495 189.401 77.078 184.6 75.3934 180.238C70.8139 168.381 77.8044 155.218 90.1924 152.372Z" fill="#2B2B2B"/>
<path d="M197.29 174.292L199.148 169.473C202.365 161.125 196.6 152.042 187.676 151.401C184.65 151.183 181.788 149.939 179.566 147.873L176.747 145.253C163.787 133.211 167.669 111.792 184.031 105.063L195.911 100.178C200.101 98.4546 204.605 97.6273 209.134 97.7489L210.034 97.7731C227.249 98.2354 241.832 110.596 245.109 127.502L248.224 143.572C249.805 151.729 254.016 159.143 260.212 164.678L267.086 170.82C267.805 171.462 268.57 172.051 269.376 172.581C276.187 177.061 279.519 185.286 277.747 193.243L275.688 202.488C273.769 211.104 275.708 220.116 279.374 228.147C316.499 309.492 155.986 303.1 202.715 217.252C207.003 209.375 206.91 199.44 201.109 192.601L200.212 191.544C196.156 186.761 195.035 180.144 197.29 174.292Z" fill="#2B2B2B"/>
<path d="M230.166 160.786C241.953 157.659 253.373 166.91 252.759 179.09L252.677 180.72C252.086 192.447 243.984 202.447 232.635 205.458L226.314 207.135L228.629 161.194L230.166 160.786Z" fill="white" stroke="#2B2B2B" stroke-width="6"/>
<circle cx="235" cy="233.129" r="9" fill="#2B2B2B"/>
<path d="M51.7364 160.939C39.9978 157.634 28.4395 166.713 28.8695 178.9L28.9271 180.531C29.3411 192.265 37.2911 202.387 48.5932 205.569L54.8885 207.341L53.2665 161.37L51.7364 160.939Z" fill="white" stroke="#2B2B2B" stroke-width="6"/>
<path d="M247.629 168.472L246.474 168.623C240.723 169.372 236.33 174.126 236.039 179.918L235.259 195.384" stroke="#2B2B2B" stroke-width="3"/>
<path d="M236.127 178.16C240.996 177.787 243.336 178.386 247.026 180.457" stroke="#2B2B2B" stroke-width="3"/>
<path d="M34.5574 168.366L35.7106 168.534C41.4496 169.37 45.7697 174.19 45.9742 179.986L46.5202 195.461" stroke="#2B2B2B" stroke-width="3"/>
<path d="M45.912 178.226C41.0492 177.78 38.7006 178.343 34.9804 180.359" stroke="#2B2B2B" stroke-width="3"/>
<circle cx="46" cy="233.129" r="9" fill="#2B2B2B"/>
<path d="M235 205.129V227.129" stroke="#2B2B2B" stroke-width="3"/>
<path d="M46 205.129V227.129" stroke="#2B2B2B" stroke-width="3"/>
</svg>
