<svg width="256" height="376" viewBox="0 0 256 376" fill="none" xmlns="http://www.w3.org/2000/svg">
<path d="M39.5654 137.841C37.0811 87.3923 77.3144 45.1292 127.824 45.1292C178.466 45.1292 218.748 87.6039 216.066 138.174L211.975 215.316C210.838 236.751 203.646 257.425 191.234 274.938L189.806 276.953C175.501 297.135 152.299 309.129 127.561 309.129C102.755 309.129 79.4981 297.069 65.2053 276.795L63.8876 274.926C51.5479 257.423 44.437 236.772 43.3837 215.382L39.5654 137.841Z" fill="white" stroke="#2B2B2B" stroke-width="6"/>
<path d="M119 288.629C123.026 281.963 131.974 281.963 136 288.629" stroke="#2B2B2B" stroke-width="3"/>
<path d="M148.5 256.504C139.5 265.504 119.5 265.504 110.5 256.504" stroke="#2B2B2B" stroke-width="6"/>
<rect x="85" y="171.379" width="9" height="22" rx="4.5" fill="#2B2B2B"/>
<rect x="162" y="170.379" width="9" height="22" rx="4.5" fill="#2B2B2B"/>
<path d="M72 167.379C74.3442 165.035 77.4347 163.301 80.8827 162.178M110 167.379C105.086 162.465 96.8919 160.234 89 160.686M68 161.379L74.5 164.879M70 158.379L78 163.379M74 156.379L80.8827 162.178M80.8827 162.178C81.7352 161.901 82.6096 161.66 83.5 161.457M78.8827 154.379L83.5 161.457M83.5 161.457C84.3213 161.27 85.1561 161.115 86 160.991M84 154.379L86 160.991M86 160.991C86.9901 160.846 87.9926 160.744 89 160.686M89 156.379V160.686" stroke="#2B2B2B" stroke-width="3"/>
<path d="M183 167.379C180.656 165.035 177.565 163.301 174.117 162.178M145 167.379C149.914 162.465 158.108 160.234 166 160.686M187 161.379L180.5 164.879M185 158.379L177 163.379M181 156.379L174.117 162.178M174.117 162.178C173.265 161.901 172.39 161.66 171.5 161.457M176.117 154.379L171.5 161.457M171.5 161.457C170.679 161.27 169.844 161.115 169 160.991M171 154.379L169 160.991M169 160.991C168.01 160.846 167.007 160.744 166 160.686M166 156.379V160.686" stroke="#2B2B2B" stroke-width="3"/>
<path d="M139.345 212.129L139.843 227.163C139.945 230.213 139.107 233.482 136.399 234.889C131.408 237.481 124.752 236.011 121 230.478" stroke="#2B2B2B" stroke-width="3"/>
<path d="M26 158.129C58.7925 150.608 79.5843 149.105 106.924 153.827C120.411 156.157 134.185 156.36 147.695 154.171C176.076 149.572 196.56 150.825 228 158.129" stroke="#2B2B2B" stroke-width="6"/>
<path d="M45 153.129L53.6346 182.782C56.2874 191.893 63.6929 198.834 72.9557 200.894L87.3579 204.095C103.596 207.705 119 195.349 119 178.715V155.571" stroke="#2B2B2B" stroke-width="6"/>
<path d="M210 153.129L201.386 183.532C198.732 192.901 191.065 200.001 181.521 201.93L167.15 204.834C151.047 208.088 136 195.778 136 179.349V155.571" stroke="#2B2B2B" stroke-width="6"/>
<path d="M230.75 157.273C235.989 155.883 241.064 159.995 240.792 165.408L240.02 180.72C239.429 192.447 231.327 202.447 219.978 205.458L213.657 207.135L215.972 161.194L230.75 157.273Z" fill="white" stroke="#2B2B2B" stroke-width="6"/>
<path d="M25.6052 157.226C20.388 155.757 15.251 159.792 15.4421 165.209L15.9827 180.531C16.3967 192.265 24.3468 202.387 35.6488 205.569L41.9442 207.341L40.3222 161.37L25.6052 157.226Z" fill="white" stroke="#2B2B2B" stroke-width="6"/>
<path d="M234.63 168.472L233.474 168.623C227.723 169.372 223.331 174.126 223.039 179.918L222.259 195.384" stroke="#2B2B2B" stroke-width="3"/>
<path d="M223.127 178.16C227.996 177.787 230.336 178.386 234.026 180.457" stroke="#2B2B2B" stroke-width="3"/>
<path d="M21.5576 168.366L22.7109 168.534C28.4498 169.37 32.7699 174.19 32.9744 179.986L33.5205 195.461" stroke="#2B2B2B" stroke-width="3"/>
<path d="M32.9123 178.226C28.0494 177.78 25.7008 178.343 21.9807 180.359" stroke="#2B2B2B" stroke-width="3"/>
<path fill-rule="evenodd" clip-rule="evenodd" d="M208.937 285.32C206.891 338.192 182.435 376 129.523 376C77.516 376 48.4998 333.936 36.2283 283.656C34.5352 284.148 21.2473 213.887 22.9831 151.734C24.719 89.5814 67.2855 39.9998 127.952 39.9998C187.633 39.9998 224.267 86.8126 229 148.936C233 201.436 231.5 247.936 208.937 285.32ZM127 305.436C172.287 305.436 209 254.173 209 190.936C209 127.699 172.287 76.4361 127 76.4361C81.7124 76.4361 44.9998 127.699 44.9998 190.936C44.9998 254.173 81.7124 305.436 127 305.436Z" fill="#2B2B2B"/>
<path fill-rule="evenodd" clip-rule="evenodd" d="M53.4653 139.497C75.6639 133.402 100.409 130 126.5 130C153.026 130 178.161 133.517 200.644 139.804C187.291 102.012 159.331 76 127 76C94.7572 76 66.8608 101.871 53.4653 139.497Z" fill="#2B2B2B"/>
<path d="M196.796 299.65C203.506 294.694 209.083 287.593 213.282 281.436" stroke="white" stroke-width="3"/>
<path d="M58.0002 281.936C67.0291 304.716 92.2703 329.932 114.115 335.512" stroke="white" stroke-width="3"/>
<path d="M127 79C159.215 79 186.591 104.927 200 142.5" stroke="white" stroke-width="3"/>
<path d="M53.9998 142.5C57.3942 132.989 61.6837 124.223 66.7202 116.436" stroke="white" stroke-width="3"/>
</svg>
