<svg width="256" height="318" viewBox="0 0 256 318" fill="none" xmlns="http://www.w3.org/2000/svg">
<path d="M128 45.1292C76.6375 45.1292 35 86.7667 35 138.129V191.129L43.8921 234.504C45.6819 247.072 50.6975 273.3 61.209 280.419L90.3024 306.768C98.3189 312.197 104.873 314.896 114.545 314.464L127 313.907L140.32 314.49C149.826 314.905 156.218 312.298 164.148 307.041L194.336 280.357C205.008 273.283 210.162 246.998 212.005 234.328L221 191.129V138.129C221 86.7667 179.362 45.1292 128 45.1292Z" fill="#BCBCBC" stroke="#2B2B2B" stroke-width="6"/>
<path d="M127.5 297.129V288.129" stroke="#2B2B2B" stroke-width="3"/>
<path d="M156 266.129L142.282 258.306C140.976 257.561 139.407 257.448 137.982 257.929C135.691 258.703 132.167 259.759 130 259.761C127.857 259.762 124.916 258.784 122.945 258.02C121.581 257.491 120.054 257.48 118.723 258.089L104 264.828" stroke="#2B2B2B" stroke-width="6"/>
<path d="M150 269.449C138.725 282.148 118.225 279.839 109 269.449M123.643 247.129L129.607 247.703C129.925 247.734 130.246 247.734 130.565 247.703L136.529 247.129" stroke="#2B2B2B" stroke-width="3"/>
<rect x="82.5" y="170.879" width="13" height="22" rx="6.5" fill="#2B2B2B"/>
<rect x="159.5" y="170.879" width="13" height="22" rx="6.5" fill="#2B2B2B"/>
<path d="M70 163.879C79 154.879 99 154.879 108 163.879" stroke="#2B2B2B" stroke-width="3"/>
<path d="M147 163.879C156 154.879 176 154.879 185 163.879" stroke="#2B2B2B" stroke-width="3"/>
<path d="M110 229.805C114.499 231.821 117.985 233.336 122.161 235.011C126.337 236.687 129.999 236.304 134.437 235.011C138.874 233.719 144.067 231.811 147.689 229.969C151.31 228.127 152.914 224.484 151.476 220.79C148.674 213.592 141.506 207.145 140.474 198.129" stroke="#2B2B2B" stroke-width="3"/>
<path fill-rule="evenodd" clip-rule="evenodd" d="M35 144.127L35 136.129C35 84.7667 76.6375 43.1292 128 43.1292C179.362 43.1292 221 84.7667 221 136.129V144.108C220.502 144.122 220.002 144.129 219.5 144.129C218.992 144.129 218.486 144.122 217.982 144.108C217.994 143.617 218 143.124 218 142.629C218 116.396 200.763 95.1292 179.5 95.1292C172.453 95.1292 165.847 97.4654 160.166 101.544C159.368 101.714 158.61 102.028 157.939 102.502C149.354 108.564 138.847 112.129 127.5 112.129C116.337 112.129 105.987 108.678 97.4797 102.795C91.4444 97.9463 84.2388 95.1292 76.5 95.1292C55.237 95.1292 38 116.396 38 142.629C38 143.092 38.0054 143.554 38.016 144.013C37.0181 144.079 36.0125 144.117 35 144.127Z" fill="#2B2B2B"/>
<path d="M127.787 21.7904C119.437 23.0519 111.306 30.4699 111.539 41.438" stroke="#2B2B2B" stroke-width="3"/>
<path d="M30.7866 90.7904C22.4369 92.0519 14.3057 99.4699 14.5394 110.438" stroke="#2B2B2B" stroke-width="3"/>
<path d="M181.787 33.7904C173.437 35.0519 165.306 42.4699 165.54 53.438" stroke="#2B2B2B" stroke-width="3"/>
<path d="M120 31C120 37.6667 125.04 44.8889 134 46" stroke="#2B2B2B" stroke-width="3"/>
<circle cx="63.5" cy="63.2904" r="15.5" fill="#2B2B2B"/>
<circle cx="35" cy="101.79" r="13" fill="#2B2B2B"/>
<circle cx="40" cy="114.79" r="13" fill="#2B2B2B"/>
<circle cx="179" cy="94.7904" r="13" fill="#2B2B2B"/>
<ellipse cx="206.5" cy="99.7904" rx="14.5" ry="15" fill="#2B2B2B"/>
<circle cx="205" cy="81.7904" r="13" fill="#2B2B2B"/>
<circle cx="60" cy="94.7904" r="13" fill="#2B2B2B"/>
<circle cx="88" cy="94.7904" r="13" fill="#2B2B2B"/>
<circle cx="89" cy="50.7904" r="23" fill="#2B2B2B"/>
<circle cx="37" cy="78.7904" r="23" fill="#2B2B2B"/>
<circle cx="208" cy="77.7904" r="23" fill="#2B2B2B"/>
<circle cx="182" cy="61.7904" r="23" fill="#2B2B2B"/>
<circle cx="128" cy="50.7904" r="23" fill="#2B2B2B"/>
<circle cx="157" cy="55.7904" r="23" fill="#2B2B2B"/>
<path fill-rule="evenodd" clip-rule="evenodd" d="M18.3347 172.641C16.866 163.462 25.9666 156.185 34.5981 159.638C34.8424 159.736 35.006 159.968 35.0156 160.231L36.9857 214.409C36.9917 214.573 36.8107 214.675 36.6735 214.586C29.5173 209.919 24.5002 202.608 22.7194 194.252L18.9999 176.799L18.3347 172.641ZM237.664 172.65C239.133 163.466 230.029 156.187 221.394 159.641C221.154 159.737 220.991 159.964 220.977 160.222L218.021 214.415C218.012 214.578 218.189 214.685 218.329 214.601C226.092 209.943 231.571 202.271 233.458 193.417L237 176.799L237.664 172.65Z" fill="#BCBCBC"/>
<path d="M34.5981 159.638L35.7122 156.852L35.7122 156.852L34.5981 159.638ZM18.3347 172.641L21.2971 172.167L18.3347 172.641ZM35.0156 160.231L38.0136 160.122V160.122L35.0156 160.231ZM36.9857 214.409L39.9837 214.3L39.9837 214.3L36.9857 214.409ZM36.6735 214.586L38.3123 212.073L38.3123 212.073L36.6735 214.586ZM22.7194 194.252L25.6535 193.626L22.7194 194.252ZM18.9999 176.799L16.0376 177.273L16.0497 177.349L16.0658 177.424L18.9999 176.799ZM221.394 159.641L222.508 162.426L222.508 162.426L221.394 159.641ZM237.664 172.65L240.626 173.124V173.124L237.664 172.65ZM220.977 160.222L217.981 160.059V160.059L220.977 160.222ZM218.021 214.415L221.016 214.578V214.578L218.021 214.415ZM218.329 214.601L216.786 212.028L216.786 212.028L218.329 214.601ZM233.458 193.417L230.524 192.792L233.458 193.417ZM237 176.799L239.934 177.424L239.95 177.349L239.962 177.273L237 176.799ZM35.7122 156.852C24.9172 152.534 13.5355 161.635 15.3724 173.115L21.2971 172.167C20.1965 165.289 27.0159 159.836 33.4839 162.423L35.7122 156.852ZM38.0136 160.122C37.9609 158.673 37.0587 157.391 35.7122 156.852L33.4839 162.423C32.626 162.08 32.0512 161.263 32.0176 160.34L38.0136 160.122ZM39.9837 214.3L38.0136 160.122L32.0176 160.34L33.9877 214.518L39.9837 214.3ZM35.0347 217.099C37.2089 218.516 40.078 216.894 39.9837 214.3L33.9877 214.518C33.9053 212.252 36.4125 210.834 38.3123 212.073L35.0347 217.099ZM19.7853 194.877C21.7314 204.009 27.2142 211.998 35.0347 217.099L38.3123 212.073C31.8204 207.839 27.269 201.207 25.6535 193.626L19.7853 194.877ZM16.0658 177.424L19.7853 194.877L25.6535 193.626L21.934 176.173L16.0658 177.424ZM15.3724 173.115L16.0376 177.273L21.9622 176.325L21.2971 172.167L15.3724 173.115ZM222.508 162.426C228.979 159.838 235.803 165.293 234.701 172.176L240.626 173.124C242.464 161.639 231.078 152.536 220.28 156.856L222.508 162.426ZM223.972 160.386C223.923 161.293 223.352 162.089 222.508 162.426L220.28 156.856C218.956 157.385 218.059 158.635 217.981 160.059L223.972 160.386ZM221.016 214.578L223.972 160.386L217.981 160.059L215.025 214.251L221.016 214.578ZM216.786 212.028C218.708 210.875 221.139 212.34 221.016 214.578L215.025 214.251C214.885 216.817 217.67 218.495 219.873 217.173L216.786 212.028ZM230.524 192.792C228.811 200.832 223.835 207.799 216.786 212.028L219.873 217.173C228.349 212.088 234.332 203.71 236.392 194.043L230.524 192.792ZM234.066 176.173L230.524 192.792L236.392 194.043L239.934 177.424L234.066 176.173ZM234.701 172.176L234.038 176.325L239.962 177.273L240.626 173.124L234.701 172.176Z" fill="#2B2B2B"/>
<path d="M25 169.129V169.129C30.3505 170.318 34.2896 174.997 34.4655 180.475L35 197.129" stroke="#2B2B2B" stroke-width="3"/>
<path d="M232.618 169.817V169.817C227.164 170.366 222.7 174.548 221.879 179.967L219.382 196.441" stroke="#2B2B2B" stroke-width="3"/>
<path d="M221.429 204.375C226.323 203.502 230.997 206.761 231.87 211.655C232.742 216.548 229.483 221.222 224.59 222.095C221.31 222.68 218.129 221.409 216.125 219.034" stroke="#2B2B2B" stroke-width="3"/>
<path d="M26 158.129C58.7925 150.608 79.5843 149.105 106.924 153.827C120.411 156.157 134.185 156.36 147.695 154.171C176.076 149.572 196.56 150.825 228 158.129" stroke="#2B2B2B" stroke-width="6"/>
<path d="M49 153.129L53.9161 178.986C56.2484 191.253 66.9718 200.129 79.4585 200.129H93C107.359 200.129 119 188.489 119 174.129V155.108" stroke="#2B2B2B" stroke-width="6"/>
<path d="M206 153.129L201.084 178.986C198.752 191.253 188.028 200.129 175.541 200.129H162C147.641 200.129 136 188.489 136 174.129V155.108" stroke="#2B2B2B" stroke-width="6"/>
</svg>
