<svg width="27" height="40" viewBox="0 0 27 40" fill="none" xmlns="http://www.w3.org/2000/svg">
<path d="M11.2828 27.1172C12.1664 27.1172 12.893 27.8362 12.7836 28.7131C12.6408 29.8566 12.345 30.9781 11.9022 32.0472C11.2547 33.6102 10.3058 35.0304 9.10951 36.2267C7.91323 37.423 6.49305 38.3719 4.93003 39.0193C3.86095 39.4622 2.73937 39.758 1.5959 39.9008C0.719053 40.0102 3.13124e-08 39.2836 6.99382e-08 38.4L4.93187e-07 28.7172C5.31812e-07 27.8335 0.716345 27.1172 1.6 27.1172H11.2828Z" fill="white"/>
<path d="M25.0103 0C25.894 0 26.6206 0.719052 26.5111 1.5959C26.3684 2.73937 26.0725 3.86095 25.6297 4.93003C24.9823 6.49305 24.0333 7.91323 22.8371 9.10951C21.6408 10.3058 20.2206 11.2547 18.6576 11.9022C17.5885 12.345 16.4669 12.6408 15.3234 12.7836C14.4466 12.893 13.7275 12.1665 13.7275 11.2828L13.7275 1.6C13.7275 0.716345 14.4439 0 15.3275 0H25.0103Z" fill="white"/>
<path d="M1.6 12.8828C0.716347 12.8828 -0.0102362 12.1637 0.0992305 11.2869C0.241982 10.1434 0.537816 9.02184 0.980644 7.95276C1.62807 6.38975 2.57701 4.96956 3.77328 3.77328C4.96956 2.577 6.38975 1.62807 7.95276 0.980644C9.02184 0.537816 10.1434 0.241982 11.2869 0.0992305C12.1637 -0.0102362 12.8828 0.716344 12.8828 1.6L12.8828 11.2828C12.8828 12.1664 12.1665 12.8828 11.2828 12.8828H1.6Z" fill="white"/>
<path d="M13.7275 15.1586C13.7275 14.2749 14.4466 13.5484 15.3234 13.6578C16.4669 13.8006 17.5885 14.0964 18.6576 14.5392C20.2206 15.1867 21.6408 16.1356 22.8371 17.3319C24.0333 18.5282 24.9823 19.9483 25.6297 21.5114C26.0725 22.5804 26.3684 23.702 26.5111 24.8455C26.6206 25.7223 25.894 26.4414 25.0103 26.4414L15.3275 26.4414C14.4439 26.4414 13.7275 25.725 13.7275 24.8414V15.1586Z" fill="white"/>
</svg>
