<svg width="22" height="34" viewBox="0 0 22 34" fill="none" xmlns="http://www.w3.org/2000/svg">
<path d="M9.20014 23.7999C9.75243 23.7999 10.2052 24.2486 10.1512 24.7983C10.0531 25.7953 9.80849 26.7743 9.4237 27.7033C8.9111 28.9408 8.15976 30.0653 7.21259 31.0125C6.26542 31.9596 5.14096 32.711 3.90343 33.2236C2.97447 33.6084 1.99545 33.853 0.998405 33.951C0.448773 34.0051 1.95703e-08 33.5523 4.37114e-08 33L4.02151e-07 24.7999C4.26292e-07 24.2476 0.447716 23.7999 1 23.7999H9.20014Z" fill="#111112"/>
<path d="M20.8907 0C21.443 0 21.8958 0.448773 21.8417 0.998406C21.7437 1.99545 21.499 2.97447 21.1143 3.90343C20.6017 5.14097 19.8503 6.26542 18.9031 7.21259C17.956 8.15976 16.8315 8.9111 15.594 9.42371C14.665 9.80849 13.686 10.0531 12.689 10.1512C12.1393 10.2052 11.6906 9.75243 11.6906 9.20015L11.6906 1C11.6906 0.447716 12.1383 0 12.6906 0H20.8907Z" fill="#111112"/>
<path d="M1 10.2001C0.447716 10.2001 -0.00507902 9.75137 0.0489797 9.20174C0.147044 8.20469 0.391654 7.22567 0.77644 6.29672C1.28904 5.05918 2.04038 3.93472 2.98755 2.98755C3.93472 2.04038 5.05918 1.28904 6.29672 0.77644C7.22567 0.391654 8.20469 0.147044 9.20174 0.0489796C9.75137 -0.00507905 10.2001 0.447715 10.2001 1V9.20014C10.2001 9.75243 9.75243 10.2001 9.20014 10.2001H1Z" fill="#111112"/>
<path d="M11.6906 12.6905C11.6906 12.1382 12.1393 11.6854 12.689 11.7395C13.686 11.8375 14.665 12.0821 15.594 12.4669C16.8315 12.9795 17.956 13.7309 18.9031 14.678C19.8503 15.6252 20.6016 16.7497 21.1143 17.9872C21.499 18.9162 21.7437 19.8952 21.8417 20.8922C21.8958 21.4419 21.443 21.8906 20.8907 21.8906H12.6906C12.1383 21.8906 11.6906 21.4429 11.6906 20.8906V12.6905Z" fill="#111112"/>
</svg>
