<svg width="27" height="40" viewBox="0 0 27 40" fill="none" xmlns="http://www.w3.org/2000/svg">
<path d="M13.3333 26.6666C13.3333 28.4176 12.9885 30.1514 12.3184 31.7691C11.6483 33.3868 10.6662 34.8566 9.42809 36.0947C8.18998 37.3328 6.72012 38.315 5.10245 38.985C3.48477 39.6551 1.75096 40 0 40L5.82819e-07 26.6666H13.3333Z" fill="#74B3FB"/>
<path d="M26.6667 0C26.6667 1.75096 26.3218 3.48477 25.6518 5.10245C24.9817 6.72013 23.9996 8.18998 22.7615 9.4281C21.5234 10.6662 20.0535 11.6483 18.4358 12.3184C16.8181 12.9885 15.0843 13.3333 13.3334 13.3333L13.3334 0H26.6667Z" fill="#007AFF"/>
<path d="M0 13.3333C0 11.5824 0.344877 9.84857 1.01494 8.23089C1.685 6.61322 2.66713 5.14336 3.90524 3.90525C5.14336 2.66713 6.61322 1.685 8.23089 1.01494C9.84857 0.344877 11.5824 -7.65369e-08 13.3333 0L13.3333 13.3333H0Z" fill="#8ABEFA"/>
<path d="M13.3334 13.3333C15.0843 13.3333 16.8181 13.6782 18.4358 14.3483C20.0535 15.0183 21.5234 16.0004 22.7615 17.2386C23.9996 18.4767 24.9817 19.9465 25.6518 21.5642C26.3218 23.1819 26.6667 24.9157 26.6667 26.6667L13.3334 26.6667V13.3333Z" fill="#499EFD"/>
</svg>
