<svg width="21" height="31" viewBox="0 0 21 31" fill="none" xmlns="http://www.w3.org/2000/svg">
<path d="M10.2001 20.4003C10.2001 21.7398 9.93631 23.0662 9.4237 24.3037C8.9111 25.5412 8.15976 26.6657 7.21259 27.6129C6.26542 28.56 5.14096 29.3114 3.90343 29.824C2.66589 30.3366 1.3395 30.6004 0 30.6004L4.45862e-07 20.4003H10.2001Z" fill="#74B3FB"/>
<path d="M20.4003 0C20.4003 1.3395 20.1365 2.66589 19.6239 3.90343C19.1113 5.14097 18.36 6.26542 17.4128 7.21259C16.4656 8.15976 15.3412 8.9111 14.1036 9.42371C12.8661 9.93631 11.5397 10.2001 10.2002 10.2001L10.2002 0H20.4003Z" fill="#007AFF"/>
<path d="M0 10.2001C0 8.86064 0.263834 7.53426 0.77644 6.29672C1.28904 5.05918 2.04038 3.93472 2.98755 2.98755C3.93472 2.04038 5.05918 1.28904 6.29672 0.77644C7.53426 0.263834 8.86064 -5.85515e-08 10.2001 0L10.2001 10.2001H0Z" fill="#8ABEFA"/>
<path d="M10.2002 10.2001C11.5397 10.2001 12.8661 10.464 14.1036 10.9766C15.3412 11.4892 16.4656 12.2405 17.4128 13.1877C18.36 14.1349 19.1113 15.2593 19.6239 16.4969C20.1365 17.7344 20.4003 19.0608 20.4003 20.4003L10.2002 20.4003V10.2001Z" fill="#499EFD"/>
</svg>
